<svg xmlns="http://www.w3.org/2000/svg" xmlns:xlink="http://www.w3.org/1999/xlink" viewBox="0 0 1366 700">
  <defs>
    <style>
      .a {
        fill: url(#a);
      }

      .b {
        fill: #fff;
      }

      .c, .d {
        fill: none;
        stroke: #fff;
        stroke-miterlimit: 10;
      }

      .c {
        stroke-width: 0.88px;
      }
    </style>
    <radialGradient id="a" data-name="Безымянный градиент 31" cx="960" cy="540" r="778.85" gradientUnits="userSpaceOnUse">
      <stop offset="0" stop-color="#fcee21" stop-opacity="0.8"/>
      <stop offset="0.08" stop-color="#dbce2b" stop-opacity="0.83"/>
      <stop offset="0.23" stop-color="#a1963c" stop-opacity="0.88"/>
      <stop offset="0.39" stop-color="#71674b" stop-opacity="0.92"/>
      <stop offset="0.55" stop-color="#4b4356" stop-opacity="0.96"/>
      <stop offset="0.7" stop-color="#30295e" stop-opacity="0.98"/>
      <stop offset="0.85" stop-color="#201962"/>
      <stop offset="1" stop-color="#1b1464"/>
    </radialGradient>
  </defs>
  <rect class="a" width="1920" height="1080"/>
  <g>
    <g>
      <path class="b" d="M62.45,87.15v21.29h-3v-18l-3,1.86V89.17l3-2Z"/>
      <path class="b" d="M66.92,108.44v-3.13h3.14v3.13Z"/>
      <path class="b" d="M88.82,108.66a7.87,7.87,0,0,1-5-1.48A6.14,6.14,0,0,1,81.56,103h3A3.15,3.15,0,0,0,86,105.06a5.4,5.4,0,0,0,3,.73,3.84,3.84,0,0,0,2.74-.91,3.32,3.32,0,0,0,1-2.54v0a3.71,3.71,0,0,0-.85-2.61,3.12,3.12,0,0,0-2.41-.92H86.29V96h3.12a2.82,2.82,0,0,0,2.15-.81,3.22,3.22,0,0,0,.76-2.28v-.13a2.69,2.69,0,0,0-.88-2.2A3.75,3.75,0,0,0,89,89.8a4.58,4.58,0,0,0-2.56.69,3.56,3.56,0,0,0-1.45,2h-3a6.69,6.69,0,0,1,2.33-4.08,7.08,7.08,0,0,1,4.57-1.44,7.6,7.6,0,0,1,4.91,1.41,5,5,0,0,1,1.74,4.12v.12a5.52,5.52,0,0,1-.75,2.92,4.46,4.46,0,0,1-2.12,1.83A3.73,3.73,0,0,1,95,99a6.42,6.42,0,0,1,.84,3.44v0A5.73,5.73,0,0,1,94,107.05,7.53,7.53,0,0,1,88.82,108.66Z"/>
      <path class="b" d="M100,108.44V93.24h3v15.2Zm1.86-6.12V99.63h9.33v2.69Zm7.75,6.12V93.24h3v15.2Z"/>
      <path class="b" d="M122.13,108.66a6.46,6.46,0,0,1-4.19-1.15,4.33,4.33,0,0,1-1.4-3.55,4.25,4.25,0,0,1,1.28-3.39,5.66,5.66,0,0,1,3.84-1.12H126l.21,2.4h-4.51a2.63,2.63,0,0,0-1.75.52,2,2,0,0,0-.58,1.59,2,2,0,0,0,.77,1.72,4,4,0,0,0,2.33.55,6.83,6.83,0,0,0,2.55-.36,1.21,1.21,0,0,0,.85-1.15l.31,2.14a3.38,3.38,0,0,1-1,1,4.42,4.42,0,0,1-1.34.6A6.83,6.83,0,0,1,122.13,108.66Zm3.72-.22V98.81a3.2,3.2,0,0,0-.8-2.33,3,3,0,0,0-2.26-.82,5.92,5.92,0,0,0-1.76.27,5,5,0,0,0-1.56.78l-2.19-1.49a5.64,5.64,0,0,1,2.28-1.62A8.13,8.13,0,0,1,122.7,93a6.19,6.19,0,0,1,4.43,1.48,5.48,5.48,0,0,1,1.56,4.17v9.77Z"/>
      <path class="b" d="M133.24,108.44V93.24h3v15.2Zm1.45-6.19V99.41h5.49v2.84Zm4.38.09-1.37-2.63,4.13-6.47h3.61Zm3.26,6.1-4.5-6.41,2.33-1.54,6.17,8Z"/>
      <path class="b" d="M154.07,108.66a6,6,0,0,1-4.63-1.73A6.82,6.82,0,0,1,147.8,102V99.57a6.71,6.71,0,0,1,1.64-4.84,7.11,7.11,0,0,1,9.25,0,6.71,6.71,0,0,1,1.64,4.84v2.52a6.7,6.7,0,0,1-1.64,4.85A6.06,6.06,0,0,1,154.07,108.66Zm0-2.84a3,3,0,0,0,2.42-1,4,4,0,0,0,.86-2.75V99.57a4,4,0,0,0-.86-2.74,3.5,3.5,0,0,0-4.84,0,4,4,0,0,0-.87,2.74v2.52a4,4,0,0,0,.87,2.75A3,3,0,0,0,154.07,105.82Z"/>
      <path class="b" d="M171.73,101.65l4.5-8.41h2.65v15.2h-2.7V97.71l.15.93-3.71,6.85h-1.78l-3.71-6.85.15-.93v10.73h-2.7V93.24h2.65Z"/>
      <path class="b" d="M189.71,108.66a6,6,0,0,1-6.58-6.6V99.55a6.46,6.46,0,0,1,1.72-4.82A6.61,6.61,0,0,1,189.71,93a7.94,7.94,0,0,1,3.22.63,5.46,5.46,0,0,1,2.28,1.8l-2.15,1.93a4.4,4.4,0,0,0-1.49-1.12,4.27,4.27,0,0,0-1.82-.4,3.57,3.57,0,0,0-2.68,1,3.68,3.68,0,0,0-.95,2.72v2.51a3.8,3.8,0,0,0,.95,2.78,3.53,3.53,0,0,0,2.68,1,4.15,4.15,0,0,0,1.82-.42,4.65,4.65,0,0,0,1.49-1.2l2.15,2.08a5.43,5.43,0,0,1-2.29,1.76A7.92,7.92,0,0,1,189.71,108.66Z"/>
      <path class="b" d="M196.6,95.93V93.24h11.81v2.69ZM201,108.44V94.84h3v13.6Z"/>
      <path class="b" d="M212.37,108.44V93.24h3v15.2Zm1.75,0v-2.69h5.63a1.83,1.83,0,0,0,1.38-.51,1.93,1.93,0,0,0,.48-1.4v0a2.13,2.13,0,0,0-.48-1.48,1.81,1.81,0,0,0-1.38-.53h-5.63V99.1h5.63c1.05,0,1.58-.49,1.58-1.47s-.52-1.7-1.55-1.7h-5.66V93.24h5.76a4.93,4.93,0,0,1,3.3,1A3.45,3.45,0,0,1,224.35,97a3.15,3.15,0,0,1-.87,2.28,4.1,4.1,0,0,1-2.43,1.16,4.53,4.53,0,0,1,2.64,1.39,3.87,3.87,0,0,1,.94,2.65v0a3.49,3.49,0,0,1-1.26,2.88,5.5,5.5,0,0,1-3.53,1Z"/>
      <path class="b" d="M234.41,108.66a6.06,6.06,0,0,1-4.63-1.73,6.87,6.87,0,0,1-1.64-4.89V99.57a6.75,6.75,0,0,1,1.64-4.84,7.12,7.12,0,0,1,9.26,0,6.75,6.75,0,0,1,1.64,4.84v2.52a6.75,6.75,0,0,1-1.64,4.85A6.08,6.08,0,0,1,234.41,108.66Zm0-2.84a3,3,0,0,0,2.43-1,4,4,0,0,0,.85-2.75V99.57a4,4,0,0,0-.85-2.74,3.5,3.5,0,0,0-4.84,0,4,4,0,0,0-.87,2.74v2.52a4,4,0,0,0,.87,2.75A3,3,0,0,0,234.41,105.82Z"/>
      <path class="b" d="M259.12,108.66a6.54,6.54,0,0,1-4.85-1.72,6.62,6.62,0,0,1-1.72-4.88V99.55a6.46,6.46,0,0,1,1.72-4.82A6.58,6.58,0,0,1,259.12,93a8,8,0,0,1,3.23.63,5.46,5.46,0,0,1,2.28,1.8l-2.15,1.93a4.35,4.35,0,0,0-1.5-1.12,4.19,4.19,0,0,0-1.81-.4,3.57,3.57,0,0,0-2.68,1,3.68,3.68,0,0,0-1,2.72v2.51a3.8,3.8,0,0,0,1,2.78,3.53,3.53,0,0,0,2.68,1,4.07,4.07,0,0,0,1.81-.42,4.58,4.58,0,0,0,1.5-1.2l2.15,2.08a5.43,5.43,0,0,1-2.29,1.76A7.94,7.94,0,0,1,259.12,108.66Z"/>
      <path class="b" d="M288.49,108.43h-2.95V97.63l.35.38-7.31,10.42H276V93.24h3v11l-.35-.38,7.34-10.66h2.56Z"/>
      <path class="b" d="M299.32,108.66a6.57,6.57,0,0,1-4.86-1.72,6.66,6.66,0,0,1-1.72-4.88V99.55a6.5,6.5,0,0,1,1.72-4.82A6.61,6.61,0,0,1,299.32,93a7.94,7.94,0,0,1,3.22.63,5.49,5.49,0,0,1,2.29,1.8l-2.16,1.93a4.31,4.31,0,0,0-1.49-1.12,4.24,4.24,0,0,0-1.82-.4,3.58,3.58,0,0,0-2.68,1,3.72,3.72,0,0,0-.95,2.72v2.51a3.84,3.84,0,0,0,.95,2.78,3.55,3.55,0,0,0,2.68,1,4.12,4.12,0,0,0,1.82-.42,4.54,4.54,0,0,0,1.49-1.2l2.16,2.08a5.46,5.46,0,0,1-2.3,1.76A7.92,7.92,0,0,1,299.32,108.66Z"/>
      <path class="b" d="M306.22,95.93V93.24H318v2.69Zm4.41,12.51V94.84h3v13.6Z"/>
      <path class="b" d="M326.79,108.66a6,6,0,0,1-4.63-1.73,6.82,6.82,0,0,1-1.64-4.89V99.57a6.71,6.71,0,0,1,1.64-4.84,7.11,7.11,0,0,1,9.25,0,6.71,6.71,0,0,1,1.64,4.84v2.52a6.7,6.7,0,0,1-1.64,4.85A6.06,6.06,0,0,1,326.79,108.66Zm0-2.84a3,3,0,0,0,2.42-1,4,4,0,0,0,.86-2.75V99.57a4,4,0,0,0-.86-2.74,3.5,3.5,0,0,0-4.84,0,4,4,0,0,0-.87,2.74v2.52a4,4,0,0,0,.87,2.75A3,3,0,0,0,326.79,105.82Z"/>
      <path class="b" d="M337.3,114.63V93.24h3v21.39Zm6.81-6a4.4,4.4,0,0,1-2.47-.68,4,4,0,0,1-1.55-1.92l.2-3.18a3.71,3.71,0,0,0,.35,1.67,2.46,2.46,0,0,0,1,1,3.23,3.23,0,0,0,1.62.37,2.92,2.92,0,0,0,2.29-.9,3.67,3.67,0,0,0,.81-2.54v-3.3a3.79,3.79,0,0,0-.81-2.59,2.87,2.87,0,0,0-2.29-.93,3.34,3.34,0,0,0-1.62.36,2.39,2.39,0,0,0-1,1,3.58,3.58,0,0,0-.35,1.64L340,95.8a5.29,5.29,0,0,1,1.81-2.06,4.44,4.44,0,0,1,2.47-.72A4.62,4.62,0,0,1,348,94.64a7,7,0,0,1,1.33,4.58v3.31a6.78,6.78,0,0,1-1.37,4.52A4.83,4.83,0,0,1,344.11,108.66Z"/>
      <path class="b" d="M366.13,108.43h-3V97.63l.35.38-7.31,10.42h-2.59V93.24h3v11l-.35-.38,7.34-10.66h2.56Z"/>
      <path class="b" d="M377,108.66a6.59,6.59,0,0,1-4.92-1.77,6.89,6.89,0,0,1-1.74-5v-1.71a7.57,7.57,0,0,1,1.68-5.26A6,6,0,0,1,376.78,93a5.23,5.23,0,0,1,4.45,2.11,9.74,9.74,0,0,1,1.57,5.92v1H372.55v-2.4H380a5.2,5.2,0,0,0-1-2.89,2.7,2.7,0,0,0-2.22-1,3.24,3.24,0,0,0-2.62,1.12,4.72,4.72,0,0,0-.94,3.15v1.93a4,4,0,0,0,1,2.9,3.78,3.78,0,0,0,2.82,1,4.83,4.83,0,0,0,1.81-.36,5.37,5.37,0,0,0,1.59-1l2,2a8.14,8.14,0,0,1-2.54,1.68A7.15,7.15,0,0,1,377,108.66Z"/>
      <path class="b" d="M399.41,108.43h-3V97.63l.35.38-7.3,10.42h-2.6V93.24h3v11l-.35-.38,7.34-10.66h2.56ZM393,90.35A4,4,0,0,1,389.75,89a6,6,0,0,1-1.09-3.93h2.4c0,1.94.66,2.91,2,2.91h.26c1.31,0,2-1,2-2.91h2.4A6,6,0,0,1,396.56,89a4,4,0,0,1-3.27,1.31Z"/>
      <path class="b" d="M410.4,108.44l7.85-21.29h2.55l7.85,21.29h-3.22l-5.91-17.18-5.9,17.18Zm3.62-4.67v-2.84h11.2v2.84Z"/>
      <path class="b" d="M437,108.66a10.66,10.66,0,0,1-3.67-.59,8.71,8.71,0,0,1-3-1.78l1.78-2.18a10.46,10.46,0,0,0,2.45,1.4,6.48,6.48,0,0,0,2.4.47,5.06,5.06,0,0,0,2.65-.55,1.78,1.78,0,0,0,.89-1.64,1.31,1.31,0,0,0-.59-1.21,4.17,4.17,0,0,0-1.56-.46c-.63-.07-1.32-.13-2.05-.18a18.29,18.29,0,0,1-1.83-.23,5.24,5.24,0,0,1-1.66-.55,2.93,2.93,0,0,1-1.19-1.2,4.25,4.25,0,0,1-.45-2.12,4.38,4.38,0,0,1,1.48-3.62,6.9,6.9,0,0,1,4.41-1.2,11.05,11.05,0,0,1,3.32.48A10,10,0,0,1,443.27,95l-1.8,2.19a9.71,9.71,0,0,0-2.25-1.1,6.72,6.72,0,0,0-2.16-.37,4.06,4.06,0,0,0-2.29.52,1.79,1.79,0,0,0-.76,1.56,1.05,1.05,0,0,0,.53,1,3.53,3.53,0,0,0,1.39.39c.58.06,1.2.11,1.86.16s1.28.11,1.93.21a5.63,5.63,0,0,1,1.79.59,3.32,3.32,0,0,1,1.32,1.31,4.73,4.73,0,0,1,.5,2.36,4.32,4.32,0,0,1-1.59,3.66A7.83,7.83,0,0,1,437,108.66Z"/>
      <path class="b" d="M446,95.93V93.24h6.86v2.69Zm5.13,12.59a3.32,3.32,0,0,1-2.72-1,4.67,4.67,0,0,1-.84-3V88.82h3v15.7a1.43,1.43,0,0,0,.22.85.76.76,0,0,0,.64.31h1.44v2.84Z"/>
      <path class="b" d="M456.92,108.44V93.24h3v15.2Zm8.37-11.6a2.62,2.62,0,0,0-1-.73,3.52,3.52,0,0,0-1.39-.25,3,3,0,0,0-2.21.79,2.93,2.93,0,0,0-.78,2.17l-.31-2.93a5.52,5.52,0,0,1,1.81-2.11,4.29,4.29,0,0,1,2.47-.76,5.58,5.58,0,0,1,1.88.3,4.23,4.23,0,0,1,1.47.89Z"/>
      <path class="b" d="M474.59,108.66a6.48,6.48,0,0,1-4.2-1.15A4.36,4.36,0,0,1,469,104a4.29,4.29,0,0,1,1.28-3.39,5.71,5.71,0,0,1,3.85-1.12h4.32l.21,2.4h-4.52a2.58,2.58,0,0,0-1.74.52,2,2,0,0,0-.59,1.59,2,2,0,0,0,.78,1.72,4,4,0,0,0,2.33.55,6.9,6.9,0,0,0,2.55-.36,1.21,1.21,0,0,0,.85-1.15l.31,2.14a3.41,3.41,0,0,1-1,1,4.31,4.31,0,0,1-1.34.6A6.8,6.8,0,0,1,474.59,108.66Zm3.72-.22V98.81a3.25,3.25,0,0,0-.8-2.33,3,3,0,0,0-2.26-.82,5.94,5.94,0,0,0-1.77.27,5.19,5.19,0,0,0-1.56.78l-2.18-1.49A5.57,5.57,0,0,1,472,93.6a8.13,8.13,0,0,1,3.14-.58,6.17,6.17,0,0,1,4.42,1.48,5.45,5.45,0,0,1,1.57,4.17v9.77Z"/>
      <path class="b" d="M486,108.44V87.15h3v21.29Zm1.5,0V105.6h12.19v2.84Z"/>
      <path class="b" d="M502.89,90.13v-3h3v3Zm0,18.31V93.24h3v15.2Z"/>
      <path class="b" d="M510.42,108.44V93.24h3v15.2Zm9.23,0V99.23a3.52,3.52,0,0,0-.83-2.49,3.06,3.06,0,0,0-2.35-.88,3.13,3.13,0,0,0-2.27.78,2.9,2.9,0,0,0-.79,2.18l-.31-2.93a5.33,5.33,0,0,1,1.84-2.12,4.43,4.43,0,0,1,2.51-.75,4.71,4.71,0,0,1,3.83,1.62,7,7,0,0,1,1.35,4.58v9.22Z"/>
      <path class="b" d="M530.16,93.24v9.24A3.49,3.49,0,0,0,531,105a3,3,0,0,0,2.29.87,3.12,3.12,0,0,0,2.28-.78,3,3,0,0,0,.8-2.21l.2,3.18a4.42,4.42,0,0,1-1.43,1.84,4.23,4.23,0,0,1-2.69.81,4.81,4.81,0,0,1-3.88-1.61,6.83,6.83,0,0,1-1.37-4.57V93.24Zm6.19,15.2V93.24h3v15.2Z"/>
      <path class="b" d="M542.4,108.44l5.74-8.39,1.43,2.75-3.86,5.64Zm10.37,0-4.54-6.91-5.6-8.29H546l4.36,6.81,5.76,8.39Zm-2.32-7-1.26-2.81,3.33-5.39h3.32Z"/>
    </g>
    <ellipse class="b" cx="313.56" cy="268.4" rx="115.31" ry="8.48"/>
  </g>
  <g>
    <g>
      <path class="b" d="M454.14,394.62v-2.26l6.49-8.66a6.48,6.48,0,0,0,.88-1.54,4.07,4.07,0,0,0,.31-1.5v0a2.23,2.23,0,0,0-.65-1.73,3,3,0,0,0-3.69,0,3,3,0,0,0-.87,1.91h-2.7a6.15,6.15,0,0,1,1.75-3.74,5.1,5.1,0,0,1,3.63-1.32,5.48,5.48,0,0,1,3.88,1.27,4.64,4.64,0,0,1,1.37,3.58h0a5.9,5.9,0,0,1-.41,2.07,8.44,8.44,0,0,1-1.14,2.07l-5.39,7.33h7v2.48Z"/>
      <path class="b" d="M467.65,394.62v-2.74h2.74v2.74Z"/>
      <path class="b" d="M487.5,394.81a6.73,6.73,0,0,1-3.44-.85,5.83,5.83,0,0,1-2.29-2.4A7.69,7.69,0,0,1,481,388v-5.28a7.7,7.7,0,0,1,.81-3.62,5.92,5.92,0,0,1,2.29-2.39,7.41,7.41,0,0,1,6.89,0,6,6,0,0,1,2.29,2.39,7.7,7.7,0,0,1,.81,3.62V388a7.69,7.69,0,0,1-.81,3.61A5.89,5.89,0,0,1,491,394,6.74,6.74,0,0,1,487.5,394.81Zm0-2.57a3.65,3.65,0,0,0,2.82-1.15,4.36,4.36,0,0,0,1.05-3v-5.46a4.33,4.33,0,0,0-1.05-3.05,4,4,0,0,0-5.62,0,4.29,4.29,0,0,0-1.06,3.05V388a4.32,4.32,0,0,0,1.06,3A3.62,3.62,0,0,0,487.5,392.24Z"/>
      <path class="b" d="M503.39,394.81a5.72,5.72,0,0,1-4.25-1.51,5.78,5.78,0,0,1-1.5-4.26v-2.19a5.68,5.68,0,0,1,1.5-4.22,5.75,5.75,0,0,1,4.25-1.49,6.84,6.84,0,0,1,2.81.55,4.69,4.69,0,0,1,2,1.57L506.32,385a3.82,3.82,0,0,0-1.31-1,3.76,3.76,0,0,0-1.59-.35,3.13,3.13,0,0,0-2.34.85,3.25,3.25,0,0,0-.83,2.38V389a3.36,3.36,0,0,0,.83,2.43,3.13,3.13,0,0,0,2.34.86A3.5,3.5,0,0,0,505,392a3.9,3.9,0,0,0,1.31-1l1.88,1.82a4.79,4.79,0,0,1-2,1.54A7.08,7.08,0,0,1,503.39,394.81Z"/>
      <path class="b" d="M511.08,394.62V381.33h2.62v13.29Zm1.63-5.35v-2.36h8.16v2.36Zm6.78,5.35V381.33h2.61v13.29Z"/>
      <path class="b" d="M531.29,394.81a5.28,5.28,0,0,1-4-1.51,6,6,0,0,1-1.44-4.27v-2.17a5.86,5.86,0,0,1,1.44-4.23,6.24,6.24,0,0,1,8.09,0,5.86,5.86,0,0,1,1.44,4.23v2.2a5.9,5.9,0,0,1-1.44,4.25A5.32,5.32,0,0,1,531.29,394.81Zm0-2.48a2.66,2.66,0,0,0,2.12-.86,3.53,3.53,0,0,0,.75-2.41v-2.2a3.48,3.48,0,0,0-.75-2.39,3.06,3.06,0,0,0-4.23,0,3.48,3.48,0,0,0-.75,2.39v2.2a3.53,3.53,0,0,0,.75,2.41A2.67,2.67,0,0,0,531.29,392.33Z"/>
      <path class="b" d="M540.49,394.62V381.33h2.6v13.29Zm1.54,0v-2.35H547a1.56,1.56,0,0,0,1.2-.45,1.69,1.69,0,0,0,.42-1.22v0a1.86,1.86,0,0,0-.42-1.29,1.53,1.53,0,0,0-1.2-.46H542v-2.36H547c.92,0,1.38-.43,1.38-1.28s-.45-1.49-1.36-1.49H542v-2.35h5a4.37,4.37,0,0,1,2.89.86,3,3,0,0,1,1,2.44,2.75,2.75,0,0,1-.76,2,3.56,3.56,0,0,1-2.12,1,3.94,3.94,0,0,1,2.3,1.21,3.38,3.38,0,0,1,.82,2.33v0a3,3,0,0,1-1.09,2.51,4.77,4.77,0,0,1-3.1.89Z"/>
      <path class="b" d="M554.67,394.62V381.33h2.61v13.29Zm1.27,0v-2.48h4a1.71,1.71,0,0,0,1.28-.5,2.07,2.07,0,0,0,0-2.65,1.67,1.67,0,0,0-1.28-.5h-4V386h3.94a4.74,4.74,0,0,1,3.36,1.19,4.14,4.14,0,0,1,1.28,3.13,4.06,4.06,0,0,1-1.27,3.12,4.74,4.74,0,0,1-3.37,1.18Zm10.51,0V381.33h2.61v13.29Z"/>
      <path class="b" d="M580.08,400v-18.7h2.61V400Zm6-5.22a3.9,3.9,0,0,1-2.17-.59,3.52,3.52,0,0,1-1.36-1.69l.18-2.77a3.15,3.15,0,0,0,.31,1.46,2.14,2.14,0,0,0,.89.92,3,3,0,0,0,1.42.32,2.53,2.53,0,0,0,2-.79,3.22,3.22,0,0,0,.71-2.22v-2.88a3.34,3.34,0,0,0-.71-2.27,2.51,2.51,0,0,0-2-.81,3,3,0,0,0-1.42.31,2,2,0,0,0-.89.9,3,3,0,0,0-.31,1.43l-.27-2.56a4.57,4.57,0,0,1,1.58-1.8,3.9,3.9,0,0,1,2.16-.63,4.06,4.06,0,0,1,3.31,1.41,6.17,6.17,0,0,1,1.16,4v2.9a5.93,5.93,0,0,1-1.2,4A4.2,4.2,0,0,1,586,394.81Z"/>
      <path class="b" d="M598.6,394.81a5.64,5.64,0,0,1-3.67-1,3.76,3.76,0,0,1-1.22-3.1,3.71,3.71,0,0,1,1.12-3,5,5,0,0,1,3.36-1H602l.18,2.1H598.2a2.24,2.24,0,0,0-1.52.45,1.78,1.78,0,0,0-.51,1.39,1.69,1.69,0,0,0,.68,1.5,3.43,3.43,0,0,0,2,.49,6,6,0,0,0,2.23-.32,1.06,1.06,0,0,0,.74-1l.27,1.87a2.89,2.89,0,0,1-.86.88,3.66,3.66,0,0,1-1.17.52A5.7,5.7,0,0,1,598.6,394.81Zm3.25-.19v-8.43a2.8,2.8,0,0,0-.69-2,2.61,2.61,0,0,0-2-.73,5.17,5.17,0,0,0-1.55.24,4.45,4.45,0,0,0-1.36.68l-1.91-1.3a5,5,0,0,1,2-1.42,7.16,7.16,0,0,1,2.75-.5,5.45,5.45,0,0,1,3.87,1.29,4.79,4.79,0,0,1,1.37,3.65v8.54Z"/>
      <path class="b" d="M608.31,387.53v-4.92a5.26,5.26,0,0,1,1.43-4.05,6.12,6.12,0,0,1,4.28-1.37,3.68,3.68,0,0,0,1.65-.31.94.94,0,0,0,.54-.88h2.42a3.06,3.06,0,0,1-1.09,2.57,5.31,5.31,0,0,1-3.3.85,3.9,3.9,0,0,0-2.59.73,2.74,2.74,0,0,0-.86,2.2v5.18Zm5.48,7.28a5.32,5.32,0,0,1-4-1.51,6,6,0,0,1-1.43-4.27v-1.66l1.84-2.7a3.6,3.6,0,0,1,1.35-2.25,5.33,5.33,0,0,1,6.47.73,6.21,6.21,0,0,1,1.3,4.22v1.69a5.94,5.94,0,0,1-1.43,4.25A5.35,5.35,0,0,1,613.79,394.81Zm0-2.48a2.68,2.68,0,0,0,2.12-.86,3.48,3.48,0,0,0,.76-2.41v-1.69a3.43,3.43,0,0,0-.76-2.39,3.06,3.06,0,0,0-4.23,0,3.48,3.48,0,0,0-.75,2.39v1.69a3.53,3.53,0,0,0,.75,2.41A2.66,2.66,0,0,0,613.78,392.33Z"/>
      <path class="b" d="M628.08,394.81a5.28,5.28,0,0,1-4-1.51A6,6,0,0,1,622.6,389v-2.17a5.86,5.86,0,0,1,1.44-4.23,6.24,6.24,0,0,1,8.09,0,5.86,5.86,0,0,1,1.43,4.23v2.2a5.89,5.89,0,0,1-1.43,4.25A5.33,5.33,0,0,1,628.08,394.81Zm0-2.48a2.66,2.66,0,0,0,2.12-.86,3.53,3.53,0,0,0,.75-2.41v-2.2a3.48,3.48,0,0,0-.75-2.39,3.06,3.06,0,0,0-4.23,0,3.48,3.48,0,0,0-.76,2.39v2.2a3.53,3.53,0,0,0,.76,2.41A2.67,2.67,0,0,0,628.08,392.33Z"/>
      <path class="b" d="M635.61,383.68v-2.35h10.33v2.35Zm3.86,10.94v-11.9h2.61v11.9Z"/>
      <path class="b" d="M649.4,394.62V381.33H652v13.29Zm1.26,0v-2.48h4.05a1.71,1.71,0,0,0,1.28-.5,2.07,2.07,0,0,0,0-2.65,1.67,1.67,0,0,0-1.28-.5h-4.05V386h4a4.7,4.7,0,0,1,3.35,1.19,4.45,4.45,0,0,1,0,6.25,4.74,4.74,0,0,1-3.37,1.18Zm10.52,0V381.33h2.61v13.29Z"/>
      <path class="b" d="M680.17,394.81a5.25,5.25,0,0,1-5.75-5.77v-2.19a5.64,5.64,0,0,1,1.51-4.22,5.74,5.74,0,0,1,4.24-1.49,6.89,6.89,0,0,1,2.82.55,4.75,4.75,0,0,1,2,1.57L683.11,385a3.92,3.92,0,0,0-1.31-1,3.76,3.76,0,0,0-1.59-.35,3.1,3.1,0,0,0-2.34.85,3.21,3.21,0,0,0-.83,2.38V389a3.32,3.32,0,0,0,.83,2.43,3.1,3.1,0,0,0,2.34.86,3.5,3.5,0,0,0,1.59-.37,4,4,0,0,0,1.31-1l1.88,1.82a4.82,4.82,0,0,1-2,1.54A7,7,0,0,1,680.17,394.81Z"/>
      <path class="b" d="M694.92,394.62V381.33h2.61v13.29Zm1.26-5.42v-2.48H701v2.48Zm3.83.08L698.82,387l3.61-5.66h3.15Zm2.86,5.34L698.94,389l2-1.34,5.4,6.95Z"/>
      <path class="b" d="M713.13,394.81a5.32,5.32,0,0,1-4-1.51,6,6,0,0,1-1.43-4.27v-2.17a5.86,5.86,0,0,1,1.43-4.23,6.25,6.25,0,0,1,8.1,0,5.9,5.9,0,0,1,1.43,4.23v2.2a5.94,5.94,0,0,1-1.43,4.25A5.35,5.35,0,0,1,713.13,394.81Zm0-2.48a2.68,2.68,0,0,0,2.12-.86,3.53,3.53,0,0,0,.75-2.41v-2.2a3.48,3.48,0,0,0-.75-2.39,3.06,3.06,0,0,0-4.23,0,3.43,3.43,0,0,0-.76,2.39v2.2a3.48,3.48,0,0,0,.76,2.41A2.66,2.66,0,0,0,713.13,392.33Z"/>
      <path class="b" d="M728.57,388.68l3.94-7.35h2.31v13.29h-2.35v-9.39l.13.82-3.24,6h-1.57l-3.24-6,.13-.82v9.39h-2.36V381.33h2.32Z"/>
      <path class="b" d="M743.18,394.81a5.6,5.6,0,0,1-3.67-1,4.5,4.5,0,0,1-.11-6.06,5,5,0,0,1,3.37-1h3.77l.18,2.1h-3.94a2.27,2.27,0,0,0-1.53.45,1.78,1.78,0,0,0-.51,1.39,1.72,1.72,0,0,0,.68,1.5,3.45,3.45,0,0,0,2,.49,6,6,0,0,0,2.23-.32,1.07,1.07,0,0,0,.74-1l.27,1.87a3,3,0,0,1-.86.88,3.66,3.66,0,0,1-1.17.52A5.7,5.7,0,0,1,743.18,394.81Zm3.25-.19v-8.43a2.76,2.76,0,0,0-.7-2,2.58,2.58,0,0,0-2-.73,5.1,5.1,0,0,0-1.54.24,4.62,4.62,0,0,0-1.37.68l-1.9-1.3a4.91,4.91,0,0,1,2-1.42,7.13,7.13,0,0,1,2.75-.5,5.41,5.41,0,0,1,3.86,1.29,4.75,4.75,0,0,1,1.37,3.65v8.54Z"/>
      <path class="b" d="M752.88,394.62V381.33h2.62v13.29Zm1.63-5.35v-2.36h8.16v2.36Zm6.78,5.35V381.33h2.61v13.29Z"/>
      <path class="b" d="M767.1,394.62v-2.35h12.8v2.35Zm0,3.35v-5.7h2.61V398Zm1.37-4.37-.9-1.33h.31a1.56,1.56,0,0,0,1.22-.45,2.52,2.52,0,0,0,.55-1.37,17.3,17.3,0,0,0,.14-2.4v-6.72h2.61v7.59a5.51,5.51,0,0,1-.94,3.5,3.25,3.25,0,0,1-2.68,1.18Zm2.95-9.92v-2.35h5.91v2.35Zm5,10.94V381.33h2.62v13.29Zm2.37,3.35v-5.7h2.62V398Z"/>
      <path class="b" d="M784.52,394.62V381.33h2.61v13.29Zm1.63-5.35v-2.36h8.15v2.36Zm6.77,5.35V381.33h2.61v13.29Z"/>
      <path class="b" d="M804.73,394.81a5.32,5.32,0,0,1-4.05-1.51,6,6,0,0,1-1.43-4.27v-2.17a5.9,5.9,0,0,1,1.43-4.23,6.25,6.25,0,0,1,8.1,0,5.9,5.9,0,0,1,1.43,4.23v2.2a5.94,5.94,0,0,1-1.43,4.25A5.35,5.35,0,0,1,804.73,394.81Zm0-2.48a2.68,2.68,0,0,0,2.12-.86,3.53,3.53,0,0,0,.75-2.41v-2.2a3.48,3.48,0,0,0-.75-2.39,3.06,3.06,0,0,0-4.23,0,3.43,3.43,0,0,0-.76,2.39v2.2a3.48,3.48,0,0,0,.76,2.41A2.67,2.67,0,0,0,804.73,392.33Z"/>
      <path class="b" d="M824.86,394.61h-2.58v-9.44l.3.33-6.39,9.11h-2.26V381.33h2.58V391l-.3-.33,6.41-9.32h2.24Zm-5.58-15.81a3.51,3.51,0,0,1-2.86-1.14,5.27,5.27,0,0,1-1-3.44h2.1c0,1.7.58,2.55,1.72,2.55h.23c1.14,0,1.72-.85,1.72-2.55h2.1a5.27,5.27,0,0,1-1,3.44,3.51,3.51,0,0,1-2.86,1.14Z"/>
      <path class="b" d="M841.37,394.81a5.25,5.25,0,0,1-5.75-5.77v-2.19a5.64,5.64,0,0,1,1.51-4.22,5.74,5.74,0,0,1,4.24-1.49,6.89,6.89,0,0,1,2.82.55,4.75,4.75,0,0,1,2,1.57L844.31,385a3.92,3.92,0,0,0-1.31-1,3.76,3.76,0,0,0-1.59-.35,3.1,3.1,0,0,0-2.34.85,3.21,3.21,0,0,0-.83,2.38V389a3.32,3.32,0,0,0,.83,2.43,3.1,3.1,0,0,0,2.34.86A3.5,3.5,0,0,0,843,392a4,4,0,0,0,1.31-1l1.88,1.82a4.85,4.85,0,0,1-2,1.54A7.12,7.12,0,0,1,841.37,394.81Z"/>
      <path class="b" d="M847.41,383.68v-2.35h10.32v2.35Zm3.85,10.94v-11.9h2.61v11.9Z"/>
      <path class="b" d="M861.19,400v-18.7h2.61V400Zm5.95-5.22a3.84,3.84,0,0,1-2.16-.59,3.47,3.47,0,0,1-1.36-1.69l.18-2.77a3.15,3.15,0,0,0,.31,1.46,2.14,2.14,0,0,0,.89.92,2.94,2.94,0,0,0,1.41.32,2.56,2.56,0,0,0,2-.79,3.22,3.22,0,0,0,.71-2.22v-2.88a3.34,3.34,0,0,0-.71-2.27,2.54,2.54,0,0,0-2-.81,2.94,2.94,0,0,0-1.41.31,2,2,0,0,0-.89.9,3,3,0,0,0-.31,1.43l-.27-2.56a4.57,4.57,0,0,1,1.58-1.8,3.9,3.9,0,0,1,2.16-.63,4.06,4.06,0,0,1,3.31,1.41,6.17,6.17,0,0,1,1.16,4v2.9a5.93,5.93,0,0,1-1.2,4A4.24,4.24,0,0,1,867.14,394.81Z"/>
      <path class="b" d="M880.55,394.81a5.28,5.28,0,0,1-4-1.51,6,6,0,0,1-1.44-4.27v-2.17a5.86,5.86,0,0,1,1.44-4.23,6.24,6.24,0,0,1,8.09,0,5.86,5.86,0,0,1,1.43,4.23v2.2a5.89,5.89,0,0,1-1.43,4.25A5.35,5.35,0,0,1,880.55,394.81Zm0-2.48a2.66,2.66,0,0,0,2.12-.86,3.53,3.53,0,0,0,.75-2.41v-2.2a3.48,3.48,0,0,0-.75-2.39,3.06,3.06,0,0,0-4.23,0,3.48,3.48,0,0,0-.76,2.39v2.2a3.53,3.53,0,0,0,.76,2.41A2.67,2.67,0,0,0,880.55,392.33Z"/>
      <path class="b" d="M889.75,394.62V381.33h2.61v13.29ZM891,389.2v-2.48h4.8v2.48Zm3.83.08L893.66,387l3.61-5.66h3.15Zm2.85,5.34L893.77,389l2-1.34,5.39,6.95Z"/>
      <path class="b" d="M908,394.81a5.32,5.32,0,0,1-4.05-1.51,6,6,0,0,1-1.43-4.27v-2.17a5.9,5.9,0,0,1,1.43-4.23,6.25,6.25,0,0,1,8.1,0,5.86,5.86,0,0,1,1.43,4.23v2.2a5.89,5.89,0,0,1-1.43,4.25A5.35,5.35,0,0,1,908,394.81Zm0-2.48a2.66,2.66,0,0,0,2.12-.86,3.53,3.53,0,0,0,.75-2.41v-2.2a3.48,3.48,0,0,0-.75-2.39,3.06,3.06,0,0,0-4.23,0,3.43,3.43,0,0,0-.76,2.39v2.2a3.48,3.48,0,0,0,.76,2.41A2.67,2.67,0,0,0,908,392.33Z"/>
      <path class="b" d="M928.1,394.61h-2.59v-9.44l.31.33-6.4,9.11h-2.26V381.33h2.59V391l-.31-.33,6.41-9.32h2.25Zm-5.59-15.81a3.51,3.51,0,0,1-2.86-1.14,5.27,5.27,0,0,1-1-3.44h2.1c0,1.7.58,2.55,1.72,2.55h.23c1.15,0,1.72-.85,1.72-2.55h2.1a5.27,5.27,0,0,1-1,3.44,3.51,3.51,0,0,1-2.86,1.14Z"/>
    </g>
    <ellipse class="b" cx="693.9" cy="534.48" rx="100.82" ry="7.41"/>
  </g>
  <g>
    <g>
      <path class="b" d="M116.07,784a6.3,6.3,0,0,1-2.76-.57,4.68,4.68,0,0,1-1.9-1.65,6,6,0,0,1-.92-2.61h2.66a2.53,2.53,0,0,0,.95,1.76,3.28,3.28,0,0,0,2,.56,2.75,2.75,0,0,0,2-.7,2.57,2.57,0,0,0,.72-1.94v-.57a3.11,3.11,0,0,0-.68-2.15,2.43,2.43,0,0,0-1.92-.77h-1.32v-2.48h1.32a2.21,2.21,0,0,0,1.7-.65,2.69,2.69,0,0,0,.59-1.85v-.57a2.25,2.25,0,0,0-.63-1.71,2.88,2.88,0,0,0-3.47,0,3,3,0,0,0-1,1.76h-2.65a6.08,6.08,0,0,1,1.78-3.57,5,5,0,0,1,3.49-1.26,5.13,5.13,0,0,1,3.72,1.27,4.7,4.7,0,0,1,1.32,3.57v.31a4,4,0,0,1-.75,2.43,4.4,4.4,0,0,1-2.14,1.51,3.72,3.72,0,0,1,2.36,1.5,5,5,0,0,1,.84,3v.31a5,5,0,0,1-1.4,3.79A5.43,5.43,0,0,1,116.07,784Z"/>
      <path class="b" d="M124.81,783.83v-2.74h2.74v2.74Z"/>
      <path class="b" d="M138.5,783.83V765.21h2.61v18.62Zm1.34-7.22v-2.48h6a2.59,2.59,0,0,0,2-.89,3.37,3.37,0,0,0,.78-2.32,3.41,3.41,0,0,0-.78-2.34,2.58,2.58,0,0,0-2-.88h-6v-2.49h5.87a5.9,5.9,0,0,1,2.94.71,5.07,5.07,0,0,1,2,2,6.28,6.28,0,0,1,.69,3,6.21,6.21,0,0,1-.69,3,4.94,4.94,0,0,1-2,2,5.89,5.89,0,0,1-2.94.7Z"/>
      <path class="b" d="M158.18,784a5.64,5.64,0,0,1-3.67-1,3.78,3.78,0,0,1-1.22-3.09,3.72,3.72,0,0,1,1.12-3,5,5,0,0,1,3.36-1h3.78l.18,2.1h-3.94a2.2,2.2,0,0,0-1.53.46,1.75,1.75,0,0,0-.51,1.39,1.71,1.71,0,0,0,.68,1.49,3.43,3.43,0,0,0,2,.49,6,6,0,0,0,2.23-.32,1.06,1.06,0,0,0,.75-1l.26,1.87a3,3,0,0,1-.85.88,3.6,3.6,0,0,1-1.18.52A5.63,5.63,0,0,1,158.18,784Zm3.26-.2v-8.42a2.83,2.83,0,0,0-.7-2,2.61,2.61,0,0,0-2-.73,5.05,5.05,0,0,0-1.54.24,4.53,4.53,0,0,0-1.37.69l-1.91-1.31a5.05,5.05,0,0,1,2-1.42,7.36,7.36,0,0,1,2.75-.5,5.42,5.42,0,0,1,3.87,1.29,4.79,4.79,0,0,1,1.37,3.65v8.54Z"/>
      <path class="b" d="M167.89,776.74v-4.92a5.3,5.3,0,0,1,1.43-4.05,6.17,6.17,0,0,1,4.28-1.37,3.78,3.78,0,0,0,1.65-.3,1,1,0,0,0,.54-.89h2.42a3,3,0,0,1-1.09,2.57,5.31,5.31,0,0,1-3.3.85,4,4,0,0,0-2.59.73,2.74,2.74,0,0,0-.85,2.2v5.18Zm5.48,7.29a5.28,5.28,0,0,1-4-1.52,6,6,0,0,1-1.44-4.27v-1.66l1.84-2.7a3.57,3.57,0,0,1,1.36-2.25,5.32,5.32,0,0,1,6.46.73,6.23,6.23,0,0,1,1.3,4.22v1.7a5.88,5.88,0,0,1-1.43,4.24A5.32,5.32,0,0,1,173.37,784Zm0-2.49a2.68,2.68,0,0,0,2.13-.86,3.52,3.52,0,0,0,.75-2.4v-1.7a3.48,3.48,0,0,0-.75-2.39,2.74,2.74,0,0,0-2.13-.85,2.68,2.68,0,0,0-2.11.85,3.48,3.48,0,0,0-.75,2.39v1.7a3.52,3.52,0,0,0,.75,2.4A2.62,2.62,0,0,0,173.36,781.54Z"/>
      <path class="b" d="M187.67,784a5.29,5.29,0,0,1-4-1.52,6,6,0,0,1-1.44-4.27v-2.17a5.84,5.84,0,0,1,1.44-4.22,6.2,6.2,0,0,1,8.09,0,5.84,5.84,0,0,1,1.44,4.22v2.21a5.89,5.89,0,0,1-1.44,4.24A5.28,5.28,0,0,1,187.67,784Zm0-2.49a2.65,2.65,0,0,0,2.12-.86,3.52,3.52,0,0,0,.74-2.4v-2.21a3.47,3.47,0,0,0-.74-2.39,3.07,3.07,0,0,0-4.24,0,3.48,3.48,0,0,0-.75,2.39v2.21a3.52,3.52,0,0,0,.75,2.4A2.66,2.66,0,0,0,187.67,781.54Z"/>
      <path class="b" d="M195.2,772.9v-2.36h10.32v2.36Zm3.85,10.93V771.94h2.62v11.89Z"/>
      <path class="b" d="M213.23,784a5.64,5.64,0,0,1-3.67-1,3.78,3.78,0,0,1-1.22-3.09,3.72,3.72,0,0,1,1.12-3,5,5,0,0,1,3.36-1h3.78l.18,2.1h-3.95a2.19,2.19,0,0,0-1.52.46,1.75,1.75,0,0,0-.51,1.39,1.69,1.69,0,0,0,.68,1.49,3.43,3.43,0,0,0,2,.49,6,6,0,0,0,2.23-.32,1,1,0,0,0,.74-1l.27,1.87a2.89,2.89,0,0,1-.86.88,3.46,3.46,0,0,1-1.17.52A5.63,5.63,0,0,1,213.23,784Zm3.25-.2v-8.42a2.82,2.82,0,0,0-.69-2,2.61,2.61,0,0,0-2-.73,5.17,5.17,0,0,0-1.55.24,4.59,4.59,0,0,0-1.36.69L209,772.27a5.05,5.05,0,0,1,2-1.42,7.36,7.36,0,0,1,2.75-.5,5.43,5.43,0,0,1,3.87,1.29,4.79,4.79,0,0,1,1.37,3.65v8.54Z"/>
      <path class="b" d="M235.35,784a5.24,5.24,0,0,1-5.75-5.78v-2.19a5.68,5.68,0,0,1,1.5-4.22,5.81,5.81,0,0,1,4.25-1.49,6.92,6.92,0,0,1,2.82.55,4.9,4.9,0,0,1,2,1.57l-1.89,1.69a3.79,3.79,0,0,0-1.3-1,3.83,3.83,0,0,0-1.59-.35,3.14,3.14,0,0,0-2.35.85,3.27,3.27,0,0,0-.83,2.38v2.19a3.36,3.36,0,0,0,.83,2.43,3.1,3.1,0,0,0,2.35.86,3.56,3.56,0,0,0,1.59-.37,3.87,3.87,0,0,0,1.3-1l1.89,1.82a4.8,4.8,0,0,1-2,1.54A6.91,6.91,0,0,1,235.35,784Z"/>
      <path class="b" d="M253.59,783.83a3.41,3.41,0,0,1-2.87-1.3,5.86,5.86,0,0,1-1-3.68V775.5a5.83,5.83,0,0,1,1-3.67,3.43,3.43,0,0,1,2.87-1.29,2.83,2.83,0,0,1,2.48,1.29,6.48,6.48,0,0,1,.89,3.67v3.31a6.58,6.58,0,0,1-.89,3.71A2.8,2.8,0,0,1,253.59,783.83Zm.52-2.48a1.85,1.85,0,0,0,1.5-.65,2.89,2.89,0,0,0,.53-1.85V775.5a2.83,2.83,0,0,0-.53-1.83,1.85,1.85,0,0,0-1.5-.65,1.53,1.53,0,0,0-1.32.65,3.09,3.09,0,0,0-.47,1.83v3.35a3.16,3.16,0,0,0,.47,1.85A1.53,1.53,0,0,0,254.11,781.35Zm2,6.34v-21h2.62v21Zm5.17-3.86a2.82,2.82,0,0,1-2.49-1.31,6.59,6.59,0,0,1-.88-3.71V775.5a6.49,6.49,0,0,1,.88-3.67,2.85,2.85,0,0,1,2.49-1.29,3.42,3.42,0,0,1,2.86,1.29,5.83,5.83,0,0,1,1,3.67v3.35a5.86,5.86,0,0,1-1,3.68A3.4,3.4,0,0,1,261.29,783.83Zm-.53-2.48a1.57,1.57,0,0,0,1.33-.65,3.16,3.16,0,0,0,.46-1.85V775.5a3.09,3.09,0,0,0-.46-1.83,1.57,1.57,0,0,0-1.33-.65,1.82,1.82,0,0,0-1.49.65,2.77,2.77,0,0,0-.53,1.83v3.35a2.83,2.83,0,0,0,.53,1.85A1.82,1.82,0,0,0,260.76,781.35Z"/>
      <path class="b" d="M273.13,784a5.64,5.64,0,0,1-3.67-1,3.78,3.78,0,0,1-1.22-3.09,3.72,3.72,0,0,1,1.12-3,5,5,0,0,1,3.36-1h3.78l.18,2.1h-3.94a2.2,2.2,0,0,0-1.53.46,1.75,1.75,0,0,0-.51,1.39,1.71,1.71,0,0,0,.68,1.49,3.45,3.45,0,0,0,2,.49,5.92,5.92,0,0,0,2.22-.32,1.06,1.06,0,0,0,.75-1l.27,1.87a3.14,3.14,0,0,1-.86.88,3.51,3.51,0,0,1-1.18.52A5.58,5.58,0,0,1,273.13,784Zm3.26-.2v-8.42a2.83,2.83,0,0,0-.7-2,2.61,2.61,0,0,0-2-.73,5.05,5.05,0,0,0-1.54.24,4.53,4.53,0,0,0-1.37.69l-1.91-1.31a5,5,0,0,1,2-1.42,7.27,7.27,0,0,1,2.74-.5,5.42,5.42,0,0,1,3.87,1.29,4.79,4.79,0,0,1,1.37,3.65v8.54Z"/>
      <path class="b" d="M293.78,783.82h-2.59v-9.44l.31.33-6.39,9.11h-2.27V770.54h2.59v9.66l-.31-.34,6.42-9.32h2.24ZM288.19,768a3.53,3.53,0,0,1-2.86-1.15,5.31,5.31,0,0,1-.95-3.44h2.1q0,2.55,1.71,2.55h.24q1.71,0,1.71-2.55h2.1a5.31,5.31,0,0,1-.95,3.44,3.53,3.53,0,0,1-2.86,1.15Z"/>
      <path class="b" d="M297,784v-2.49a1.79,1.79,0,0,0,1.6-.93,5.07,5.07,0,0,0,.57-2.64v-7.35h2.61v7.71a6.59,6.59,0,0,1-1.19,4.21,4,4,0,0,1-3.33,1.49ZM300.77,773v-2.48h6.52V773Zm5.14,10.81V770.54h2.61v13.29Z"/>
      <path class="b" d="M316.87,784a5.64,5.64,0,0,1-3.67-1,3.78,3.78,0,0,1-1.22-3.09,3.72,3.72,0,0,1,1.12-3,5,5,0,0,1,3.36-1h3.78l.18,2.1h-3.94a2.2,2.2,0,0,0-1.53.46,1.75,1.75,0,0,0-.51,1.39,1.71,1.71,0,0,0,.68,1.49,3.43,3.43,0,0,0,2,.49,6,6,0,0,0,2.23-.32,1.06,1.06,0,0,0,.75-1l.26,1.87a3,3,0,0,1-.85.88,3.6,3.6,0,0,1-1.18.52A5.63,5.63,0,0,1,316.87,784Zm3.26-.2v-8.42a2.83,2.83,0,0,0-.7-2,2.61,2.61,0,0,0-2-.73,5.05,5.05,0,0,0-1.54.24,4.53,4.53,0,0,0-1.37.69l-1.91-1.31a5.05,5.05,0,0,1,2-1.42,7.36,7.36,0,0,1,2.75-.5,5.42,5.42,0,0,1,3.87,1.29,4.79,4.79,0,0,1,1.37,3.65v8.54Z"/>
      <path class="b" d="M332.83,777.89l3.93-7.35h2.32v13.29h-2.36v-9.38l.13.82-3.24,6h-1.56l-3.24-6,.13-.82v9.38h-2.36V770.54h2.32Z"/>
      <path class="b" d="M354.12,783.82h-2.59v-9.44l.31.33-6.39,9.11h-2.27V770.54h2.59v9.66l-.31-.34,6.42-9.32h2.24Z"/>
      <path class="b" d="M376.2,783.82h-2.59v-9.44l.31.33-6.39,9.11h-2.27V770.54h2.59v9.66l-.31-.34,6.42-9.32h2.24Z"/>
      <path class="b" d="M386.7,772.9v-2.36H397v2.36Zm3.86,10.93V771.94h2.61v11.89Z"/>
      <path class="b" d="M405,784a5.76,5.76,0,0,1-4.3-1.55,6,6,0,0,1-1.53-4.41v-1.5a6.64,6.64,0,0,1,1.47-4.6,5.28,5.28,0,0,1,4.13-1.62,4.57,4.57,0,0,1,3.89,1.84,8.58,8.58,0,0,1,1.37,5.18v.87h-9v-2.1h6.48a4.55,4.55,0,0,0-.84-2.53,2.36,2.36,0,0,0-1.94-.9,2.82,2.82,0,0,0-2.29,1,4.12,4.12,0,0,0-.82,2.75v1.69a3.48,3.48,0,0,0,.87,2.54,3.33,3.33,0,0,0,2.47.88,4,4,0,0,0,1.57-.32,4.45,4.45,0,0,0,1.4-.89l1.72,1.71a7.4,7.4,0,0,1-2.22,1.47A6.4,6.4,0,0,1,405,784Z"/>
      <path class="b" d="M413.65,783.83V770.54h2.61v13.29Zm1.27-5.41v-2.49h4.8v2.49Zm3.83.07-1.19-2.29,3.61-5.66h3.15Zm2.85,5.34-3.93-5.61,2-1.34,5.39,7Z"/>
      <path class="b" d="M432.13,784a5.25,5.25,0,0,1-5.75-5.78v-2.19a5.64,5.64,0,0,1,1.51-4.22,5.77,5.77,0,0,1,4.24-1.49,6.92,6.92,0,0,1,2.82.55,4.83,4.83,0,0,1,2,1.57l-1.89,1.69a3.79,3.79,0,0,0-1.3-1,3.83,3.83,0,0,0-1.59-.35,3.1,3.1,0,0,0-2.34.85,3.23,3.23,0,0,0-.84,2.38v2.19a3.32,3.32,0,0,0,.84,2.43,3.07,3.07,0,0,0,2.34.86,3.56,3.56,0,0,0,1.59-.37,3.87,3.87,0,0,0,1.3-1l1.89,1.82a4.8,4.8,0,0,1-2,1.54A6.91,6.91,0,0,1,432.13,784Z"/>
      <path class="b" d="M438.16,772.9v-2.36h10.33v2.36ZM442,783.83V771.94h2.61v11.89Z"/>
      <path class="b" d="M456.15,784a5.29,5.29,0,0,1-4-1.52,6,6,0,0,1-1.44-4.27v-2.17a5.84,5.84,0,0,1,1.44-4.22,6.2,6.2,0,0,1,8.09,0,5.84,5.84,0,0,1,1.44,4.22v2.21a5.89,5.89,0,0,1-1.44,4.24A5.28,5.28,0,0,1,456.15,784Zm0-2.49a2.65,2.65,0,0,0,2.12-.86,3.52,3.52,0,0,0,.74-2.4v-2.21a3.47,3.47,0,0,0-.74-2.39,3.07,3.07,0,0,0-4.24,0,3.48,3.48,0,0,0-.75,2.39v2.21a3.52,3.52,0,0,0,.75,2.4A2.66,2.66,0,0,0,456.15,781.54Z"/>
      <path class="b" d="M465.34,783.83V770.54h2.6v13.29Zm1.54,0v-2.35h4.92A1.59,1.59,0,0,0,473,781a1.73,1.73,0,0,0,.42-1.23v0a1.86,1.86,0,0,0-.42-1.29,1.53,1.53,0,0,0-1.2-.46h-4.92v-2.36h4.92c.92,0,1.38-.42,1.38-1.28s-.45-1.48-1.36-1.48h-4.94v-2.36h5a4.37,4.37,0,0,1,2.89.86,3,3,0,0,1,1,2.44,2.75,2.75,0,0,1-.76,2,3.56,3.56,0,0,1-2.12,1,4,4,0,0,1,2.3,1.21,3.38,3.38,0,0,1,.82,2.33v0a3,3,0,0,1-1.09,2.51,4.75,4.75,0,0,1-3.1.89Z"/>
      <path class="b" d="M479.52,783.83V770.54h2.61v13.29Zm1.27,0v-2.48h4a1.7,1.7,0,0,0,1.27-.5,1.82,1.82,0,0,0,.48-1.32,1.84,1.84,0,0,0-.48-1.33,1.7,1.7,0,0,0-1.27-.5h-4v-2.49h3.94a4.74,4.74,0,0,1,3.36,1.19,4.14,4.14,0,0,1,1.28,3.13,4.06,4.06,0,0,1-1.27,3.12,4.73,4.73,0,0,1-3.37,1.18Zm10.51,0V770.54h2.62v13.29Z"/>
      <path class="b" d="M504.14,777.89l3.93-7.35h2.32v13.29H508v-9.38l.13.82-3.24,6h-1.56l-3.24-6,.12-.82v9.38h-2.35V770.54h2.32Z"/>
      <path class="b" d="M525.42,783.82h-2.58v-9.44l.3.33-6.39,9.11h-2.26V770.54h2.58v9.66l-.3-.34,6.41-9.32h2.24Z"/>
      <path class="b" d="M241.42,820.72V802H244v18.7Zm6-5.22a3.93,3.93,0,0,1-2.16-.59,3.47,3.47,0,0,1-1.36-1.69l.18-2.78a3.09,3.09,0,0,0,.31,1.46,2.11,2.11,0,0,0,.89.93,2.91,2.91,0,0,0,1.41.32,2.61,2.61,0,0,0,2-.79,3.23,3.23,0,0,0,.71-2.22v-2.88a3.34,3.34,0,0,0-.71-2.27,2.55,2.55,0,0,0-2-.81,2.91,2.91,0,0,0-1.41.31,2,2,0,0,0-.89.89,3.06,3.06,0,0,0-.31,1.44l-.27-2.56a4.63,4.63,0,0,1,1.57-1.8,3.91,3.91,0,0,1,2.17-.64,4,4,0,0,1,3.3,1.42,6.11,6.11,0,0,1,1.17,4v2.9a5.83,5.83,0,0,1-1.21,4A4.21,4.21,0,0,1,247.37,815.5Z"/>
      <path class="b" d="M261.13,815.5a5.75,5.75,0,0,1-4.31-1.55,6,6,0,0,1-1.52-4.4v-1.5a6.64,6.64,0,0,1,1.47-4.6,5.27,5.27,0,0,1,4.13-1.63,4.55,4.55,0,0,1,3.88,1.85,8.48,8.48,0,0,1,1.38,5.17v.87h-9v-2.1h6.49a4.55,4.55,0,0,0-.84-2.52,2.35,2.35,0,0,0-1.94-.91,2.87,2.87,0,0,0-2.3,1,4.21,4.21,0,0,0-.82,2.76v1.69a3.44,3.44,0,0,0,.88,2.53,3.34,3.34,0,0,0,2.47.89,4.16,4.16,0,0,0,1.57-.32,4.42,4.42,0,0,0,1.4-.9l1.71,1.72A7,7,0,0,1,263.6,815,6.26,6.26,0,0,1,261.13,815.5Z"/>
      <path class="b" d="M268.21,815.31V813H281v2.35Zm0,3.34V813h2.61v5.69Zm1.37-4.36-.9-1.33H269a1.58,1.58,0,0,0,1.22-.45,2.6,2.6,0,0,0,.55-1.37,17.4,17.4,0,0,0,.14-2.4V802h2.61v7.59a5.45,5.45,0,0,1-.95,3.5,3.24,3.24,0,0,1-2.67,1.18Zm2.95-9.92V802h5.91v2.35Zm5,10.94V802h2.61v13.29Zm2.37,3.34V813h2.61v5.69Z"/>
      <path class="b" d="M289.88,815.5a5.64,5.64,0,0,1-3.67-1,3.8,3.8,0,0,1-1.22-3.1,3.71,3.71,0,0,1,1.12-3,5,5,0,0,1,3.36-1h3.78l.18,2.1h-3.95A2.24,2.24,0,0,0,288,810a1.78,1.78,0,0,0-.51,1.39,1.69,1.69,0,0,0,.68,1.5,3.51,3.51,0,0,0,2,.49,6,6,0,0,0,2.23-.32,1.06,1.06,0,0,0,.74-1l.27,1.87a2.89,2.89,0,0,1-.86.88,3.9,3.9,0,0,1-1.17.52A5.65,5.65,0,0,1,289.88,815.5Zm3.25-.19v-8.43a2.84,2.84,0,0,0-.69-2,2.64,2.64,0,0,0-2-.72,5.17,5.17,0,0,0-1.55.24,4.45,4.45,0,0,0-1.36.68l-1.91-1.3a5,5,0,0,1,2-1.42,7.16,7.16,0,0,1,2.75-.51,5.45,5.45,0,0,1,3.87,1.3,4.79,4.79,0,0,1,1.37,3.65v8.54Z"/>
      <path class="b" d="M299.59,815.31V802h2.61v13.29Zm1.27-5.42v-2.48h4.8v2.48Zm3.83.08-1.2-2.29,3.62-5.66h3.15Zm2.85,5.34-3.93-5.61,2-1.34,5.39,6.95Z"/>
      <path class="b" d="M312.45,804.37V802h10.32v2.35Zm3.85,10.94v-11.9h2.62v11.9Z"/>
      <path class="b" d="M330.43,815.5a5.32,5.32,0,0,1-4.05-1.51,6,6,0,0,1-1.43-4.28v-2.16a5.9,5.9,0,0,1,1.43-4.23,6.22,6.22,0,0,1,8.1,0,5.9,5.9,0,0,1,1.43,4.23v2.2a5.94,5.94,0,0,1-1.43,4.25A5.35,5.35,0,0,1,330.43,815.5Zm0-2.48a2.68,2.68,0,0,0,2.12-.86,3.53,3.53,0,0,0,.75-2.41v-2.2a3.52,3.52,0,0,0-.75-2.4,3.08,3.08,0,0,0-4.23,0,3.47,3.47,0,0,0-.76,2.4v2.2a3.48,3.48,0,0,0,.76,2.41A2.66,2.66,0,0,0,330.43,813Z"/>
      <path class="b" d="M339.63,820.72V802h2.61v18.7Zm5.95-5.22a3.93,3.93,0,0,1-2.16-.59,3.47,3.47,0,0,1-1.36-1.69l.18-2.78a3.09,3.09,0,0,0,.31,1.46,2.11,2.11,0,0,0,.89.93,2.91,2.91,0,0,0,1.41.32,2.61,2.61,0,0,0,2-.79,3.23,3.23,0,0,0,.71-2.22v-2.88a3.34,3.34,0,0,0-.71-2.27,2.55,2.55,0,0,0-2-.81,2.91,2.91,0,0,0-1.41.31,2,2,0,0,0-.89.89,3.06,3.06,0,0,0-.31,1.44l-.27-2.56a4.57,4.57,0,0,1,1.58-1.8,3.88,3.88,0,0,1,2.16-.64,4,4,0,0,1,3.3,1.42,6.11,6.11,0,0,1,1.17,4v2.9a5.88,5.88,0,0,1-1.2,4A4.24,4.24,0,0,1,345.58,815.5Z"/>
      <path class="b" d="M358.15,815.5a5.62,5.62,0,0,1-3.67-1,4.5,4.5,0,0,1-.11-6.06,5,5,0,0,1,3.37-1h3.77l.18,2.1h-3.94a2.23,2.23,0,0,0-1.52.45,1.75,1.75,0,0,0-.52,1.39,1.72,1.72,0,0,0,.68,1.5,3.52,3.52,0,0,0,2,.49,6,6,0,0,0,2.23-.32,1.07,1.07,0,0,0,.74-1l.27,1.87a3,3,0,0,1-.86.88,3.9,3.9,0,0,1-1.17.52A5.7,5.7,0,0,1,358.15,815.5Zm3.25-.19v-8.43a2.8,2.8,0,0,0-.7-2,2.61,2.61,0,0,0-2-.72,5.1,5.1,0,0,0-1.54.24,4.45,4.45,0,0,0-1.36.68l-1.91-1.3a4.91,4.91,0,0,1,2-1.42,7.13,7.13,0,0,1,2.75-.51,5.41,5.41,0,0,1,3.86,1.3,4.75,4.75,0,0,1,1.37,3.65v8.54Z"/>
      <path class="b" d="M374.1,809.37,378,802h2.31v13.29H378v-9.39l.13.82-3.24,6h-1.57l-3.24-6,.13-.82v9.39h-2.36V802h2.32Z"/>
      <path class="b" d="M395.39,815.3H392.8v-9.44l.31.33-6.39,9.11h-2.27V802H387v9.65l-.31-.33,6.42-9.32h2.24Z"/>
    </g>
    <ellipse class="b" cx="318.4" cy="923.69" rx="100.82" ry="7.41"/>
  </g>
  <g>
    <g>
      <path class="b" d="M729.87,890.64v-2.27l6.25-13.49h2.69l-6.1,13.34h9.13v2.42Zm8,2.87v-11h2.55v11Z"/>
      <path class="b" d="M744.72,893.49v-2.74h2.74v2.74Z"/>
      <path class="b" d="M764.58,893.69a6.74,6.74,0,0,1-3.45-.86,5.83,5.83,0,0,1-2.29-2.4,7.66,7.66,0,0,1-.81-3.61v-5.28a7.66,7.66,0,0,1,.81-3.61,6,6,0,0,1,2.29-2.4,7.41,7.41,0,0,1,6.89,0,5.89,5.89,0,0,1,2.29,2.4,7.66,7.66,0,0,1,.81,3.61v5.28a7.66,7.66,0,0,1-.81,3.61,5.77,5.77,0,0,1-2.29,2.4A6.73,6.73,0,0,1,764.58,893.69Zm0-2.58a3.63,3.63,0,0,0,2.81-1.15,4.36,4.36,0,0,0,1.05-3.05v-5.46a4.33,4.33,0,0,0-1.05-3.05,4,4,0,0,0-5.62,0,4.29,4.29,0,0,0-1.06,3.05v5.46a4.32,4.32,0,0,0,1.06,3.05A3.64,3.64,0,0,0,764.58,891.11Z"/>
      <path class="b" d="M780.46,893.69a5.25,5.25,0,0,1-5.75-5.78v-2.19a5.68,5.68,0,0,1,1.5-4.22,5.76,5.76,0,0,1,4.25-1.49,6.92,6.92,0,0,1,2.82.55,4.72,4.72,0,0,1,2,1.57l-1.88,1.69a3.82,3.82,0,0,0-1.31-1,3.75,3.75,0,0,0-1.58-.35,3.14,3.14,0,0,0-2.35.85,3.27,3.27,0,0,0-.83,2.38v2.19a3.36,3.36,0,0,0,.83,2.43,3.1,3.1,0,0,0,2.35.86,3.49,3.49,0,0,0,1.58-.37,3.9,3.9,0,0,0,1.31-1.05l1.88,1.82a4.79,4.79,0,0,1-2,1.54A7.08,7.08,0,0,1,780.46,893.69Z"/>
      <path class="b" d="M788.16,893.49V880.2h2.61v13.29Zm1.62-5.35v-2.36h8.16v2.36Zm6.78,5.35V880.2h2.61v13.29Z"/>
      <path class="b" d="M808.37,893.69a5.31,5.31,0,0,1-4-1.52,6,6,0,0,1-1.44-4.27v-2.17a5.82,5.82,0,0,1,1.44-4.22,6.2,6.2,0,0,1,8.09,0,5.82,5.82,0,0,1,1.44,4.22v2.21a5.89,5.89,0,0,1-1.44,4.24A5.32,5.32,0,0,1,808.37,893.69Zm0-2.49a2.65,2.65,0,0,0,2.12-.86,3.52,3.52,0,0,0,.75-2.4v-2.21a3.48,3.48,0,0,0-.75-2.39,3.07,3.07,0,0,0-4.24,0,3.48,3.48,0,0,0-.75,2.39v2.21a3.52,3.52,0,0,0,.75,2.4A2.66,2.66,0,0,0,808.37,891.2Z"/>
      <path class="b" d="M817.56,893.49V880.2h2.6v13.29Zm1.54,0v-2.35H824a1.59,1.59,0,0,0,1.2-.44,1.73,1.73,0,0,0,.42-1.23v0a1.86,1.86,0,0,0-.42-1.29,1.53,1.53,0,0,0-1.2-.46H819.1v-2.36H824c.92,0,1.38-.42,1.38-1.28s-.45-1.48-1.36-1.48H819.1V880.2h5a4.37,4.37,0,0,1,2.89.86,3,3,0,0,1,1,2.44,2.75,2.75,0,0,1-.76,2,3.56,3.56,0,0,1-2.12,1,3.91,3.91,0,0,1,2.3,1.21,3.38,3.38,0,0,1,.82,2.33v0a3,3,0,0,1-1.09,2.51,4.75,4.75,0,0,1-3.1.89Z"/>
      <path class="b" d="M831.74,893.49V880.2h2.61v13.29Zm1.27,0V891h4a1.69,1.69,0,0,0,1.27-.5,1.82,1.82,0,0,0,.48-1.32,1.84,1.84,0,0,0-.48-1.33,1.69,1.69,0,0,0-1.27-.5h-4v-2.49H837a4.72,4.72,0,0,1,3.36,1.19,4.14,4.14,0,0,1,1.28,3.13,4.06,4.06,0,0,1-1.27,3.12,4.73,4.73,0,0,1-3.37,1.18Zm10.51,0V880.2h2.62v13.29Z"/>
      <path class="b" d="M857.15,886.4v-4.92a5.3,5.3,0,0,1,1.43-4.05,6.12,6.12,0,0,1,4.28-1.37,3.62,3.62,0,0,0,1.65-.31.94.94,0,0,0,.54-.88h2.43a3.05,3.05,0,0,1-1.1,2.57,5.31,5.31,0,0,1-3.3.85,3.92,3.92,0,0,0-2.59.73,2.74,2.74,0,0,0-.85,2.2v5.18Zm5.48,7.29a5.28,5.28,0,0,1-4-1.52,6,6,0,0,1-1.44-4.27v-1.66l1.85-2.7a3.52,3.52,0,0,1,1.35-2.25,5.33,5.33,0,0,1,6.47.73,6.28,6.28,0,0,1,1.3,4.22v1.7a5.89,5.89,0,0,1-1.44,4.24A5.34,5.34,0,0,1,862.63,893.69Zm0-2.49a2.68,2.68,0,0,0,2.13-.86,3.52,3.52,0,0,0,.75-2.4v-1.7a3.48,3.48,0,0,0-.75-2.39,2.74,2.74,0,0,0-2.13-.85,2.7,2.7,0,0,0-2.11.85,3.48,3.48,0,0,0-.75,2.39v1.7a3.52,3.52,0,0,0,.75,2.4A2.64,2.64,0,0,0,862.62,891.2Z"/>
      <path class="b" d="M877.27,893.69a5.78,5.78,0,0,1-4.3-1.55,6,6,0,0,1-1.52-4.41v-1.5a6.63,6.63,0,0,1,1.46-4.6A5.3,5.3,0,0,1,877,880a4.56,4.56,0,0,1,3.89,1.84,8.51,8.51,0,0,1,1.38,5.18v.87h-9v-2.1h6.48a4.48,4.48,0,0,0-.84-2.53,2.37,2.37,0,0,0-1.94-.91,2.84,2.84,0,0,0-2.29,1,4.12,4.12,0,0,0-.82,2.75v1.69a3.44,3.44,0,0,0,.88,2.54,3.29,3.29,0,0,0,2.46.88,4.21,4.21,0,0,0,1.58-.32,4.37,4.37,0,0,0,1.39-.9L882,891.7a7.4,7.4,0,0,1-2.22,1.47A6.37,6.37,0,0,1,877.27,893.69Z"/>
      <path class="b" d="M890.06,893.69a5.37,5.37,0,0,1-3.41-1,4.34,4.34,0,0,1-1.58-2.92h2.54a1.66,1.66,0,0,0,.77,1.15,2.93,2.93,0,0,0,1.64.41,2.76,2.76,0,0,0,1.73-.48,1.68,1.68,0,0,0,.61-1.39h0a1.38,1.38,0,0,0-.44-1.08,1.91,1.91,0,0,0-1.26-.38h-2.09v-2.23h2.09a1.13,1.13,0,0,0,.93-.4,1.67,1.67,0,0,0,.34-1.11h0a1.71,1.71,0,0,0-.54-1.35,2.22,2.22,0,0,0-1.51-.47,2.73,2.73,0,0,0-1.53.41,2,2,0,0,0-.83,1.15H885a4.7,4.7,0,0,1,1.67-2.91,5.18,5.18,0,0,1,3.32-1,5.33,5.33,0,0,1,3.36.93,3.19,3.19,0,0,1,1.19,2.64h0a3.35,3.35,0,0,1-.53,1.89,3,3,0,0,1-1.47,1.16,2.72,2.72,0,0,1,1.8.93,3,3,0,0,1,.63,2h0a3.76,3.76,0,0,1-1.28,3A5.5,5.5,0,0,1,890.06,893.69Z"/>
      <path class="b" d="M903.47,893.69a5.29,5.29,0,0,1-4.05-1.52A6,6,0,0,1,898,887.9v-2.17a5.82,5.82,0,0,1,1.44-4.22,6.2,6.2,0,0,1,8.09,0,5.82,5.82,0,0,1,1.44,4.22v2.21a5.89,5.89,0,0,1-1.44,4.24A5.32,5.32,0,0,1,903.47,893.69Zm0-2.49a2.61,2.61,0,0,0,2.11-.86,3.52,3.52,0,0,0,.75-2.4v-2.21a3.48,3.48,0,0,0-.75-2.39,2.64,2.64,0,0,0-2.11-.85,2.69,2.69,0,0,0-2.12.85,3.48,3.48,0,0,0-.75,2.39v2.21a3.52,3.52,0,0,0,.75,2.4A2.66,2.66,0,0,0,903.47,891.2Z"/>
      <path class="b" d="M912.66,893.49V880.2h2.61v13.29Zm1.63-10.81V880.2h8.16v2.48Zm6.77,10.81V880.2h2.62v13.29Z"/>
      <path class="b" d="M932,893.69a5.62,5.62,0,0,1-3.67-1,4.5,4.5,0,0,1-.11-6.06,5,5,0,0,1,3.37-1h3.78l.17,2.1h-3.94a2.24,2.24,0,0,0-1.52.45,1.75,1.75,0,0,0-.52,1.39,1.72,1.72,0,0,0,.68,1.5,3.45,3.45,0,0,0,2,.49,6,6,0,0,0,2.23-.32,1.06,1.06,0,0,0,.74-1l.27,1.87a3,3,0,0,1-.86.88,3.66,3.66,0,0,1-1.17.52A5.69,5.69,0,0,1,932,893.69Zm3.25-.2v-8.42a2.78,2.78,0,0,0-.7-2,2.58,2.58,0,0,0-2-.73,5.1,5.1,0,0,0-1.54.24,4.69,4.69,0,0,0-1.36.68l-1.91-1.3a4.91,4.91,0,0,1,2-1.42,7.32,7.32,0,0,1,2.75-.5,5.41,5.41,0,0,1,3.86,1.29,4.75,4.75,0,0,1,1.37,3.65v8.54Z"/>
      <path class="b" d="M947.1,893.69a5.26,5.26,0,0,1-5.75-5.78v-2.19a5.64,5.64,0,0,1,1.51-4.22A5.72,5.72,0,0,1,947.1,880a6.92,6.92,0,0,1,2.82.55,4.75,4.75,0,0,1,2,1.57L950,883.82a3.79,3.79,0,0,0-1.3-1,3.83,3.83,0,0,0-1.59-.35,3.1,3.1,0,0,0-2.34.85,3.23,3.23,0,0,0-.84,2.38v2.19a3.32,3.32,0,0,0,.84,2.43,3.07,3.07,0,0,0,2.34.86,3.56,3.56,0,0,0,1.59-.37,3.87,3.87,0,0,0,1.3-1.05l1.89,1.82a4.88,4.88,0,0,1-2,1.54A7.08,7.08,0,0,1,947.1,893.69Z"/>
      <path class="b" d="M954.8,893.49V880.2h2.61v13.29Zm1.63-5.35v-2.36h8.15v2.36Zm6.77,5.35V880.2h2.61v13.29Z"/>
      <path class="b" d="M975,893.69a5.32,5.32,0,0,1-4-1.52,6,6,0,0,1-1.43-4.27v-2.17a5.86,5.86,0,0,1,1.43-4.22,6.22,6.22,0,0,1,8.1,0,5.86,5.86,0,0,1,1.43,4.22v2.21a5.93,5.93,0,0,1-1.43,4.24A5.36,5.36,0,0,1,975,893.69Zm0-2.49a2.65,2.65,0,0,0,2.12-.86,3.52,3.52,0,0,0,.75-2.4v-2.21a3.48,3.48,0,0,0-.75-2.39,3.06,3.06,0,0,0-4.23,0,3.43,3.43,0,0,0-.76,2.39v2.21a3.47,3.47,0,0,0,.76,2.4A2.62,2.62,0,0,0,975,891.2Z"/>
      <path class="b" d="M989.57,893.69a5.26,5.26,0,0,1-5.75-5.78v-2.19a5.64,5.64,0,0,1,1.51-4.22,5.72,5.72,0,0,1,4.24-1.49,6.92,6.92,0,0,1,2.82.55,4.75,4.75,0,0,1,2,1.57l-1.89,1.69a3.82,3.82,0,0,0-2.89-1.33,3.1,3.1,0,0,0-2.34.85,3.23,3.23,0,0,0-.84,2.38v2.19a3.32,3.32,0,0,0,.84,2.43,3.07,3.07,0,0,0,2.34.86,3.53,3.53,0,0,0,1.59-.37,3.87,3.87,0,0,0,1.3-1.05l1.89,1.82a4.88,4.88,0,0,1-2,1.54A7.08,7.08,0,0,1,989.57,893.69Z"/>
      <path class="b" d="M995.6,882.56V880.2h10.33v2.36Zm3.86,10.93V881.6h2.61v11.89Z"/>
      <path class="b" d="M1020.32,893.48h-2.58V884l.3.34-6.39,9.1h-2.26V880.2H1012v9.66l-.3-.34,6.41-9.32h2.24Z"/>
    </g>
    <ellipse class="b" cx="875.29" cy="1033.35" rx="100.82" ry="7.41"/>
  </g>
  <g>
    <g>
      <path class="b" d="M977.37,560.47a5,5,0,0,1-3.49-1.22,5.63,5.63,0,0,1-1.71-3.45h2.61a2.37,2.37,0,0,0,.82,1.59,2.65,2.65,0,0,0,1.77.57,2.37,2.37,0,0,0,1.94-.84,3.67,3.67,0,0,0,.68-2.36V553.2a3.67,3.67,0,0,0-.68-2.36,2.4,2.4,0,0,0-1.94-.83,2.51,2.51,0,0,0-1.31.38,3.64,3.64,0,0,0-1.1,1.08h-2.38v-9.81h9.49v2.48h-6.88v4.19a3.64,3.64,0,0,1,1.09-.61,3.47,3.47,0,0,1,1.23-.22,4.79,4.79,0,0,1,3.76,1.49,6.11,6.11,0,0,1,1.33,4.21v1.56a6,6,0,0,1-1.37,4.22A5,5,0,0,1,977.37,560.47Z"/>
      <path class="b" d="M986.13,560.28v-2.74h2.74v2.74Z"/>
      <path class="b" d="M1013.57,560.27H1011V545.63l.3.33L1002,560.27h-2.14V541.66h2.58v14.86l-.3-.34,9.36-14.52h2.11Z"/>
      <path class="b" d="M1022.09,560.47a5.33,5.33,0,0,1-3.41-1,4.33,4.33,0,0,1-1.57-2.91h2.53a1.73,1.73,0,0,0,.78,1.15,3,3,0,0,0,1.63.41,2.7,2.7,0,0,0,1.73-.49,1.65,1.65,0,0,0,.62-1.38h0a1.35,1.35,0,0,0-.45-1.08,1.88,1.88,0,0,0-1.26-.38h-2.09v-2.23h2.09a1.15,1.15,0,0,0,.94-.4A1.67,1.67,0,0,0,1024,551h0a1.74,1.74,0,0,0-.53-1.35,2.2,2.2,0,0,0-1.52-.47,2.61,2.61,0,0,0-1.52.41,2,2,0,0,0-.84,1.15H1017a4.7,4.7,0,0,1,1.68-2.91,5.19,5.19,0,0,1,3.32-1,5.33,5.33,0,0,1,3.36.94,3.16,3.16,0,0,1,1.18,2.64h0a3.32,3.32,0,0,1-.52,1.88,3.06,3.06,0,0,1-1.47,1.17,2.77,2.77,0,0,1,1.8.93,3,3,0,0,1,.63,2h0a3.74,3.74,0,0,1-1.29,3A5.55,5.55,0,0,1,1022.09,560.47Z"/>
      <path class="b" d="M1033.78,561.37l-5.3-14.38h2.67l4.08,11.55Zm3.81-14.38h2.66l-5.66,16.4a3.3,3.3,0,0,1-1.37,1.9,4.77,4.77,0,0,1-2.46.54h-.52v-2.51h.52a2,2,0,0,0,1.16-.3,2.24,2.24,0,0,0,.75-1Z"/>
      <path class="b" d="M1047.3,556.12a4.66,4.66,0,0,1-3.6-1.38,5.51,5.51,0,0,1-1.27-3.89V547H1045v4a2.75,2.75,0,0,0,.63,1.93,2.27,2.27,0,0,0,1.75.67,3.41,3.41,0,0,0,2.36-.75,2.69,2.69,0,0,0,.82-2.1v-1.35h.82v1.26a6.68,6.68,0,0,1-1.08,4.07A3.55,3.55,0,0,1,1047.3,556.12Zm3.3,4.16V547h2.61v13.29Z"/>
      <path class="b" d="M1062.76,560.47a5.75,5.75,0,0,1-4.31-1.55,6,6,0,0,1-1.52-4.4V553a6.66,6.66,0,0,1,1.46-4.6,5.31,5.31,0,0,1,4.14-1.63,4.55,4.55,0,0,1,3.88,1.85,8.48,8.48,0,0,1,1.38,5.17v.87h-9v-2.1h6.48a4.47,4.47,0,0,0-.83-2.52,2.35,2.35,0,0,0-1.94-.91,2.87,2.87,0,0,0-2.3,1,4.21,4.21,0,0,0-.82,2.76v1.69a3.44,3.44,0,0,0,.88,2.53,3.34,3.34,0,0,0,2.47.89,4.16,4.16,0,0,0,1.57-.32,4.42,4.42,0,0,0,1.4-.9l1.71,1.72a7,7,0,0,1-2.21,1.46A6.26,6.26,0,0,1,1062.76,560.47Z"/>
      <path class="b" d="M1071.38,560.28V547H1074v13.29Zm1.62-5.35v-2.36h8.16v2.36Zm6.78,5.35V547h2.61v13.29Z"/>
      <path class="b" d="M1097.43,560.27h-2.59v-9.44l.31.33-6.39,9.11h-2.27V547h2.59v9.65l-.31-.33,6.42-9.32h2.24Z"/>
      <path class="b" d="M1107,560.47a5.72,5.72,0,0,1-4.3-1.55,6,6,0,0,1-1.53-4.4V553a6.62,6.62,0,0,1,1.47-4.6,5.29,5.29,0,0,1,4.13-1.63,4.58,4.58,0,0,1,3.89,1.85,8.54,8.54,0,0,1,1.37,5.17v.87h-9v-2.1h6.48a4.55,4.55,0,0,0-.84-2.52,2.34,2.34,0,0,0-1.94-.91,2.85,2.85,0,0,0-2.29,1,4.15,4.15,0,0,0-.82,2.76v1.69a3.44,3.44,0,0,0,.87,2.53,3.34,3.34,0,0,0,2.47.89,4.16,4.16,0,0,0,1.57-.32,4.31,4.31,0,0,0,1.4-.9l1.72,1.72a7.19,7.19,0,0,1-2.22,1.46A6.23,6.23,0,0,1,1107,560.47Z"/>
      <path class="b" d="M1122.63,560.28V547h2.62v13.29Zm1.27-5.42v-2.48h4.8v2.48Zm3.83.08-1.19-2.29,3.61-5.66h3.15Zm2.86,5.34-3.94-5.61,2-1.34,5.39,6.95Z"/>
      <path class="b" d="M1140.85,560.47a5.29,5.29,0,0,1-4-1.51,6,6,0,0,1-1.44-4.28v-2.16a5.86,5.86,0,0,1,1.44-4.23,6.2,6.2,0,0,1,8.09,0,5.86,5.86,0,0,1,1.44,4.23v2.2a5.91,5.91,0,0,1-1.44,4.25A5.31,5.31,0,0,1,1140.85,560.47Zm0-2.48a2.68,2.68,0,0,0,2.12-.86,3.58,3.58,0,0,0,.74-2.41v-2.2a3.57,3.57,0,0,0-.74-2.4,3.1,3.1,0,0,0-4.24,0,3.52,3.52,0,0,0-.75,2.4v2.2a3.53,3.53,0,0,0,.75,2.41A2.69,2.69,0,0,0,1140.85,558Z"/>
      <path class="b" d="M1150,560.28V547h2.61v13.29Zm1.63-5.35v-2.36h8.16v2.36Zm6.77,5.35V547h2.62v13.29Z"/>
      <path class="b" d="M1168.65,560.28a3.4,3.4,0,0,1-2.87-1.31,5.89,5.89,0,0,1-1-3.67v-3.36a5.84,5.84,0,0,1,1-3.66,3.44,3.44,0,0,1,2.87-1.29,2.85,2.85,0,0,1,2.49,1.29,6.43,6.43,0,0,1,.88,3.66v3.32a6.61,6.61,0,0,1-.88,3.71A2.84,2.84,0,0,1,1168.65,560.28Zm.53-2.48a1.81,1.81,0,0,0,1.49-.66,2.86,2.86,0,0,0,.53-1.84v-3.36a2.82,2.82,0,0,0-.53-1.82,1.83,1.83,0,0,0-1.49-.65,1.54,1.54,0,0,0-1.33.65,3.08,3.08,0,0,0-.47,1.82v3.36a3.13,3.13,0,0,0,.47,1.84A1.52,1.52,0,0,0,1169.18,557.8Zm2,6.34v-21h2.61v21Zm5.16-3.86a2.84,2.84,0,0,1-2.49-1.31,6.69,6.69,0,0,1-.88-3.71v-3.32a6.51,6.51,0,0,1,.88-3.66,2.85,2.85,0,0,1,2.49-1.29,3.44,3.44,0,0,1,2.87,1.29,5.84,5.84,0,0,1,1,3.66v3.36a5.89,5.89,0,0,1-1,3.67A3.4,3.4,0,0,1,1176.35,560.28Zm-.53-2.48a1.52,1.52,0,0,0,1.33-.66,3.13,3.13,0,0,0,.47-1.84v-3.36a3.08,3.08,0,0,0-.47-1.82,1.54,1.54,0,0,0-1.33-.65,1.83,1.83,0,0,0-1.49.65,2.82,2.82,0,0,0-.53,1.82v3.36a2.86,2.86,0,0,0,.53,1.84A1.81,1.81,0,0,0,1175.82,557.8Z"/>
      <path class="b" d="M1194.88,560.27h-2.59v-9.44l.31.33-6.39,9.11h-2.27V547h2.59v9.65l-.31-.33,6.42-9.32h2.24Z"/>
      <path class="b" d="M1199,560.28V547h2.61v13.29Zm1.28-10.81V547h7.24v2.48Z"/>
      <path class="b" d="M1214.08,561.37l-5.3-14.38h2.66l4.09,11.55Zm3.81-14.38h2.66l-5.66,16.4a3.34,3.34,0,0,1-1.37,1.9,4.77,4.77,0,0,1-2.46.54h-.53v-2.51h.53a2,2,0,0,0,1.16-.3,2.4,2.4,0,0,0,.75-1Z"/>
      <path class="b" d="M1222.85,565.69V547h2.62v18.7Zm6-5.22a3.93,3.93,0,0,1-2.16-.59,3.47,3.47,0,0,1-1.36-1.69l.18-2.78a3.09,3.09,0,0,0,.31,1.46,2.11,2.11,0,0,0,.89.93,2.91,2.91,0,0,0,1.41.32,2.57,2.57,0,0,0,2-.79,3.19,3.19,0,0,0,.72-2.22v-2.89a3.28,3.28,0,0,0-.72-2.26,2.51,2.51,0,0,0-2-.81,2.91,2.91,0,0,0-1.41.31,2,2,0,0,0-.89.89,3.06,3.06,0,0,0-.31,1.44l-.27-2.56a4.55,4.55,0,0,1,1.57-1.8,3.91,3.91,0,0,1,2.17-.64,4,4,0,0,1,3.3,1.42,6.11,6.11,0,0,1,1.17,4v2.9a5.85,5.85,0,0,1-1.21,3.95A4.21,4.21,0,0,1,1228.81,560.47Z"/>
      <path class="b" d="M1241.38,560.47a5.6,5.6,0,0,1-3.67-1,4.5,4.5,0,0,1-.11-6.06,5,5,0,0,1,3.36-1h3.78l.18,2.1H1241a2.25,2.25,0,0,0-1.53.45,1.78,1.78,0,0,0-.51,1.39,1.72,1.72,0,0,0,.68,1.5,3.52,3.52,0,0,0,2,.49,6,6,0,0,0,2.23-.32,1.07,1.07,0,0,0,.74-1l.27,1.87a3,3,0,0,1-.86.88,3.9,3.9,0,0,1-1.17.52A5.7,5.7,0,0,1,1241.38,560.47Zm3.25-.19v-8.43a2.8,2.8,0,0,0-.7-2,2.64,2.64,0,0,0-2-.72,5.1,5.1,0,0,0-1.54.24,4.62,4.62,0,0,0-1.37.68l-1.9-1.3a4.91,4.91,0,0,1,2-1.42,7.13,7.13,0,0,1,2.75-.51,5.41,5.41,0,0,1,3.86,1.3,4.75,4.75,0,0,1,1.37,3.65v8.54Z"/>
      <path class="b" d="M1251.08,560.28V547h2.62v13.29Zm1.63,0v-2.36h7.77v2.36Zm6.39,0V547h2.61v13.29Zm2.38,3.34v-5.7h2.62v5.7Z"/>
      <path class="b" d="M1278.11,560.27h-2.59v-9.44l.31.33-6.39,9.11h-2.27V547h2.59v9.65l-.31-.33,6.42-9.32h2.24Z"/>
      <path class="b" d="M1287.3,560.47a5.28,5.28,0,0,1-4-1.51,6,6,0,0,1-1.44-4.28v-2.16a5.86,5.86,0,0,1,1.44-4.23,6.2,6.2,0,0,1,8.09,0,5.86,5.86,0,0,1,1.44,4.23v2.2a5.91,5.91,0,0,1-1.44,4.25A5.32,5.32,0,0,1,1287.3,560.47Zm0-2.48a2.66,2.66,0,0,0,2.12-.86,3.53,3.53,0,0,0,.75-2.41v-2.2a3.52,3.52,0,0,0-.75-2.4,3.08,3.08,0,0,0-4.23,0,3.52,3.52,0,0,0-.75,2.4v2.2a3.53,3.53,0,0,0,.75,2.41A2.67,2.67,0,0,0,1287.3,558Z"/>
      <path class="b" d="M1296.5,560.28V547h2.61v13.29Zm1.63-5.35v-2.36h8.16v2.36Zm6.77,5.35V547h2.61v13.29Z"/>
      <path class="b" d="M1311.61,560.28V547h2.62v13.29Zm1.63-5.35v-2.36h8.16v2.36Zm6.78,5.35V547h2.61v13.29Z"/>
      <path class="b" d="M1326.73,560.28V547h2.61v13.29Zm1.27,0V557.8h4a1.71,1.71,0,0,0,1.28-.5,1.85,1.85,0,0,0,.48-1.32,1.82,1.82,0,0,0-.48-1.33,1.67,1.67,0,0,0-1.28-.5h-4v-2.49h3.94a4.7,4.7,0,0,1,3.35,1.19,4.45,4.45,0,0,1,0,6.25,4.74,4.74,0,0,1-3.37,1.18Zm10.51,0V547h2.61v13.29Z"/>
      <path class="b" d="M1343.43,560.28l5-7.34,1.25,2.41-3.38,4.93Zm9.07,0-4-6-4.9-7.25h2.91l3.82,6,5,7.34Zm-2-6.12-1.1-2.46,2.91-4.71h2.91Z"/>
      <path class="b" d="M1123.28,591.76a3.42,3.42,0,0,1-2.87-1.31,5.89,5.89,0,0,1-1-3.67v-3.36a5.84,5.84,0,0,1,1-3.66,3.41,3.41,0,0,1,2.87-1.3,2.82,2.82,0,0,1,2.48,1.3,6.43,6.43,0,0,1,.89,3.66v3.32a6.63,6.63,0,0,1-.89,3.71A2.83,2.83,0,0,1,1123.28,591.76Zm.52-2.49a1.81,1.81,0,0,0,1.5-.65,2.88,2.88,0,0,0,.53-1.84v-3.36a2.85,2.85,0,0,0-.53-1.83,1.83,1.83,0,0,0-1.5-.64,1.53,1.53,0,0,0-1.32.64,3.11,3.11,0,0,0-.47,1.83v3.36a3.15,3.15,0,0,0,.47,1.84A1.51,1.51,0,0,0,1123.8,589.27Zm2,6.34v-21h2.61v21Zm5.16-3.85a2.84,2.84,0,0,1-2.49-1.31,6.63,6.63,0,0,1-.88-3.71v-3.32a6.43,6.43,0,0,1,.88-3.66,2.83,2.83,0,0,1,2.49-1.3,3.43,3.43,0,0,1,2.87,1.3,5.84,5.84,0,0,1,1,3.66v3.36a5.89,5.89,0,0,1-1,3.67A3.44,3.44,0,0,1,1131,591.76Zm-.53-2.49a1.53,1.53,0,0,0,1.33-.65,3.15,3.15,0,0,0,.47-1.84v-3.36a3.11,3.11,0,0,0-.47-1.83,1.54,1.54,0,0,0-1.33-.64,1.81,1.81,0,0,0-1.49.64,2.85,2.85,0,0,0-.53,1.83v3.36a2.88,2.88,0,0,0,.53,1.84A1.79,1.79,0,0,0,1130.45,589.27Z"/>
      <path class="b" d="M1142.82,592a5.7,5.7,0,0,1-3.67-1,3.82,3.82,0,0,1-1.22-3.1,3.75,3.75,0,0,1,1.12-3,5,5,0,0,1,3.36-1h3.78l.18,2.1h-3.94a2.26,2.26,0,0,0-1.53.46,1.77,1.77,0,0,0-.51,1.39,1.74,1.74,0,0,0,.68,1.5,3.53,3.53,0,0,0,2,.48,5.72,5.72,0,0,0,2.22-.32,1,1,0,0,0,.75-1l.27,1.88a3.14,3.14,0,0,1-.86.88,3.9,3.9,0,0,1-1.17.52A6.19,6.19,0,0,1,1142.82,592Zm3.26-.19v-8.43a2.83,2.83,0,0,0-.7-2,2.64,2.64,0,0,0-2-.72,5.42,5.42,0,0,0-1.54.23,4.53,4.53,0,0,0-1.37.69l-1.91-1.31a5,5,0,0,1,2-1.41,7.11,7.11,0,0,1,2.74-.51,5.42,5.42,0,0,1,3.87,1.29,4.77,4.77,0,0,1,1.37,3.65v8.55Z"/>
      <path class="b" d="M1163.47,591.75h-2.59v-9.44l.31.33-6.39,9.11h-2.27V578.46h2.59v9.66l-.31-.33,6.42-9.33h2.24Zm-5.58-15.81a3.51,3.51,0,0,1-2.87-1.15,5.31,5.31,0,0,1-1-3.44h2.1c0,1.7.57,2.55,1.72,2.55h.23q1.71,0,1.71-2.55h2.1a5.25,5.25,0,0,1-1,3.44,3.5,3.5,0,0,1-2.86,1.15Z"/>
      <path class="b" d="M1166.67,591.87v-2.48a1.77,1.77,0,0,0,1.6-.94,5.06,5.06,0,0,0,.57-2.63v-7.36h2.61v7.71a6.63,6.63,0,0,1-1.19,4.22,4,4,0,0,1-3.33,1.48Zm3.79-10.92v-2.49H1177V581Zm5.14,10.81v-13.3h2.61v13.3Z"/>
      <path class="b" d="M1187.41,592a5.32,5.32,0,0,1-4.05-1.52,6,6,0,0,1-1.43-4.27V584a5.9,5.9,0,0,1,1.43-4.23,6.22,6.22,0,0,1,8.1,0,5.9,5.9,0,0,1,1.43,4.23v2.2a6,6,0,0,1-1.43,4.25A5.35,5.35,0,0,1,1187.41,592Zm0-2.48a2.68,2.68,0,0,0,2.12-.86,3.55,3.55,0,0,0,.75-2.41V584a3.5,3.5,0,0,0-.75-2.4,3.08,3.08,0,0,0-4.23,0,3.46,3.46,0,0,0-.76,2.4v2.2a3.5,3.5,0,0,0,.76,2.41A2.66,2.66,0,0,0,1187.41,589.47Z"/>
      <path class="b" d="M1196.6,591.76v-13.3h2.61v13.3Zm1.54,0V589.4h4.92a1.59,1.59,0,0,0,1.2-.44,1.65,1.65,0,0,0,.43-1.22v0a1.82,1.82,0,0,0-.43-1.3,1.57,1.57,0,0,0-1.2-.46h-4.92v-2.35h4.92c.92,0,1.38-.43,1.38-1.28s-.45-1.49-1.35-1.49h-4.95v-2.36h5a4.32,4.32,0,0,1,2.89.87,3,3,0,0,1,1,2.44,2.81,2.81,0,0,1-.75,2,3.68,3.68,0,0,1-2.13,1,3.91,3.91,0,0,1,2.3,1.21,3.37,3.37,0,0,1,.83,2.32v0a3.07,3.07,0,0,1-1.1,2.52,4.8,4.8,0,0,1-3.09.89Z"/>
    </g>
    <ellipse class="b" cx="1163.23" cy="700.14" rx="100.82" ry="7.41"/>
  </g>
  <g>
    <g>
      <path class="b" d="M1130.2,127.56a5,5,0,0,1-3.83-1.47,5.9,5.9,0,0,1-1.36-4.15v0a10.3,10.3,0,0,1,.34-2.55,12.41,12.41,0,0,1,1-2.61l4-8h2.82l-4.75,9.29v-.46a2.45,2.45,0,0,1,2.37-1.27,4.18,4.18,0,0,1,3.4,1.45,6.29,6.29,0,0,1,1.2,4.11h0a6,6,0,0,1-1.36,4.2A4.93,4.93,0,0,1,1130.2,127.56Zm0-2.51a2.4,2.4,0,0,0,1.92-.77,3.21,3.21,0,0,0,.67-2.19h0a3.69,3.69,0,0,0-.71-2.42,2.45,2.45,0,0,0-2-.85,2.11,2.11,0,0,0-1.8.86,4,4,0,0,0-.64,2.42h0a3.21,3.21,0,0,0,.67,2.19A2.43,2.43,0,0,0,1130.2,125.05Z"/>
      <path class="b" d="M1138.54,127.37v-2.74h2.74v2.74Z"/>
      <path class="b" d="M1152.23,127.37V108.74h2.61v18.63Zm1.63-16.14v-2.49h10.33v2.49Zm9,16.14V108.74h2.61v18.63Z"/>
      <path class="b" d="M1169.78,132.77v-18.7h2.61v18.7Zm6-5.21a3.85,3.85,0,0,1-2.16-.6,3.44,3.44,0,0,1-1.36-1.68l.18-2.78a3.12,3.12,0,0,0,.31,1.46,2.08,2.08,0,0,0,.89.92,2.83,2.83,0,0,0,1.41.32,2.57,2.57,0,0,0,2-.79,3.2,3.2,0,0,0,.71-2.22v-2.88A3.35,3.35,0,0,0,1177,117a2.54,2.54,0,0,0-2-.8,3.06,3.06,0,0,0-1.41.3,2.09,2.09,0,0,0-.89.9,3,3,0,0,0-.31,1.43l-.27-2.56a4.71,4.71,0,0,1,1.58-1.8,3.87,3.87,0,0,1,2.16-.63,4.06,4.06,0,0,1,3.31,1.41,6.2,6.2,0,0,1,1.16,4v2.89a5.93,5.93,0,0,1-1.2,4A4.24,4.24,0,0,1,1175.73,127.56Z"/>
      <path class="b" d="M1189.14,127.56a5.32,5.32,0,0,1-4.05-1.52,6,6,0,0,1-1.43-4.27V119.6a5.89,5.89,0,0,1,1.43-4.22,6.22,6.22,0,0,1,8.1,0,5.85,5.85,0,0,1,1.43,4.22v2.21a5.88,5.88,0,0,1-1.43,4.24A5.32,5.32,0,0,1,1189.14,127.56Zm0-2.49a2.66,2.66,0,0,0,2.12-.85,3.57,3.57,0,0,0,.75-2.41V119.6a3.48,3.48,0,0,0-.75-2.39,3.06,3.06,0,0,0-4.23,0,3.48,3.48,0,0,0-.76,2.39v2.21a3.57,3.57,0,0,0,.76,2.41A2.66,2.66,0,0,0,1189.14,125.07Z"/>
      <path class="b" d="M1203.71,127.56a5.25,5.25,0,0,1-5.76-5.78v-2.19a5.7,5.7,0,0,1,1.51-4.22,5.79,5.79,0,0,1,4.25-1.49,6.84,6.84,0,0,1,2.81.55,4.71,4.71,0,0,1,2,1.58l-1.88,1.69a3.82,3.82,0,0,0-1.31-1,3.76,3.76,0,0,0-1.59-.35,3.15,3.15,0,0,0-2.34.85,3.22,3.22,0,0,0-.83,2.38v2.19a3.36,3.36,0,0,0,.83,2.44,3.11,3.11,0,0,0,2.34.85,3.5,3.5,0,0,0,1.59-.37,4,4,0,0,0,1.31-1l1.88,1.82a4.71,4.71,0,0,1-2,1.54A6.94,6.94,0,0,1,1203.71,127.56Z"/>
      <path class="b" d="M1209.74,116.43v-2.36h10.32v2.36Zm3.85,10.94v-11.9h2.62v11.9Z"/>
      <path class="b" d="M1227.77,127.56a5.7,5.7,0,0,1-3.67-1,3.82,3.82,0,0,1-1.22-3.1,3.73,3.73,0,0,1,1.12-3,5,5,0,0,1,3.36-1h3.78l.18,2.1h-4a2.19,2.19,0,0,0-1.52.46,1.75,1.75,0,0,0-.51,1.39,1.72,1.72,0,0,0,.68,1.5,3.52,3.52,0,0,0,2,.48,5.78,5.78,0,0,0,2.23-.32,1,1,0,0,0,.74-1l.27,1.87a2.92,2.92,0,0,1-.86.89,3.9,3.9,0,0,1-1.17.52A6.11,6.11,0,0,1,1227.77,127.56Zm3.25-.19v-8.43a2.82,2.82,0,0,0-.69-2,2.64,2.64,0,0,0-2-.72,5.15,5.15,0,0,0-1.55.23,4.59,4.59,0,0,0-1.36.69l-1.91-1.31a4.94,4.94,0,0,1,2-1.41,7.16,7.16,0,0,1,2.75-.51,5.43,5.43,0,0,1,3.87,1.29,4.8,4.8,0,0,1,1.37,3.65v8.55Z"/>
      <path class="b" d="M1239.68,127.37h-3.1l3.74-5.84,2.6.58Zm6.52-4.68h-4.71a4.74,4.74,0,0,1-3.36-1.18,4.16,4.16,0,0,1-1.28-3.13,4.07,4.07,0,0,1,1.28-3.13,4.74,4.74,0,0,1,3.36-1.18h4.71v2.49h-4.81a1.67,1.67,0,0,0-1.28.5,2,2,0,0,0,0,2.64,1.66,1.66,0,0,0,1.27.51h4.81Zm1.27,4.68h-2.61v-13.3h2.61Z"/>
      <path class="b" d="M1263.71,127.56a5.32,5.32,0,0,1-4-1.52,6,6,0,0,1-1.43-4.27V119.6a5.89,5.89,0,0,1,1.43-4.22,6.22,6.22,0,0,1,8.1,0,5.89,5.89,0,0,1,1.43,4.22v2.21a5.93,5.93,0,0,1-1.43,4.24A5.32,5.32,0,0,1,1263.71,127.56Zm0-2.49a2.67,2.67,0,0,0,2.12-.85,3.57,3.57,0,0,0,.75-2.41V119.6a3.48,3.48,0,0,0-.75-2.39,3.06,3.06,0,0,0-4.23,0,3.43,3.43,0,0,0-.76,2.39v2.21a3.52,3.52,0,0,0,.76,2.41A2.65,2.65,0,0,0,1263.71,125.07Z"/>
      <path class="b" d="M1272.91,127.37v-13.3h2.61v13.3Zm1.62-10.81v-2.49h8.16v2.49Zm6.78,10.81v-13.3h2.61v13.3Z"/>
      <path class="b" d="M1286.48,116.43v-2.36h10.32v2.36Zm3.86,10.94v-11.9H1293v11.9Z"/>
      <path class="b" d="M1311.2,127.35h-2.59v-9.44l.31.34-6.39,9.1h-2.27V114.07h2.59v9.66l-.31-.33,6.42-9.33h2.24Z"/>
      <path class="b" d="M1321.55,121.42l3.93-7.35h2.32v13.3h-2.36V118l.13.82-3.24,6h-1.56l-3.24-6,.13-.82v9.39h-2.36v-13.3h2.32Z"/>
      <path class="b" d="M1342.84,127.35h-2.59v-9.44l.31.34-6.39,9.1h-2.27V114.07h2.59v9.66l-.31-.33,6.42-9.33h2.24Z"/>
      <path class="b" d="M1351.1,127.56a5.39,5.39,0,0,1-3.41-1,4.29,4.29,0,0,1-1.57-2.92h2.53a1.72,1.72,0,0,0,.78,1.16,3,3,0,0,0,1.63.41,2.76,2.76,0,0,0,1.73-.49,1.67,1.67,0,0,0,.61-1.38v0a1.31,1.31,0,0,0-.44-1.07,1.83,1.83,0,0,0-1.26-.39h-2.09V119.6h2.09a1.19,1.19,0,0,0,.94-.39,1.72,1.72,0,0,0,.33-1.12h0a1.7,1.7,0,0,0-.53-1.34,2.2,2.2,0,0,0-1.52-.48,2.73,2.73,0,0,0-1.53.41,2.08,2.08,0,0,0-.83,1.15H1346a4.75,4.75,0,0,1,1.68-2.91,5.15,5.15,0,0,1,3.31-1,5.34,5.34,0,0,1,3.37.93,3.18,3.18,0,0,1,1.18,2.64v0a3.34,3.34,0,0,1-.52,1.88,3,3,0,0,1-1.48,1.16,2.72,2.72,0,0,1,1.8.93,3,3,0,0,1,.64,2v0a3.72,3.72,0,0,1-1.29,3A5.5,5.5,0,0,1,1351.1,127.56Z"/>
      <path class="b" d="M1363.66,127.56a5.7,5.7,0,0,1-3.67-1,3.82,3.82,0,0,1-1.22-3.1,3.73,3.73,0,0,1,1.12-3,5,5,0,0,1,3.36-1H1367l.18,2.1h-3.94a2.2,2.2,0,0,0-1.53.46,2.06,2.06,0,0,0,.17,2.89,3.53,3.53,0,0,0,2,.48,5.72,5.72,0,0,0,2.22-.32,1,1,0,0,0,.75-1l.27,1.87a3,3,0,0,1-.86.89,4,4,0,0,1-1.17.52A6.19,6.19,0,0,1,1363.66,127.56Zm3.26-.19v-8.43a2.83,2.83,0,0,0-.7-2,2.64,2.64,0,0,0-2-.72,5,5,0,0,0-1.54.23,4.53,4.53,0,0,0-1.37.69l-1.91-1.31a4.9,4.9,0,0,1,2-1.41,7.11,7.11,0,0,1,2.74-.51,5.42,5.42,0,0,1,3.87,1.29,4.8,4.8,0,0,1,1.37,3.65v8.55Z"/>
      <path class="b" d="M1373.37,127.37v-13.3H1376v13.3Zm1.63,0V125h7.77v2.36Zm6.39,0v-13.3H1384v13.3Zm2.38,3.34V125h2.61v5.7Z"/>
      <path class="b" d="M1400.4,127.35h-2.59v-9.44l.31.34-6.39,9.1h-2.27V114.07h2.59v9.66l-.31-.33,6.42-9.33h2.24Z"/>
      <path class="b" d="M1406.7,127.37h-3.1l3.74-5.84,2.6.58Zm6.52-4.68h-4.72a4.69,4.69,0,0,1-3.35-1.18,4.12,4.12,0,0,1-1.28-3.13,4.06,4.06,0,0,1,1.27-3.13,4.74,4.74,0,0,1,3.36-1.18h4.72v2.49h-4.82a1.65,1.65,0,0,0-1.27.5,1.82,1.82,0,0,0-.48,1.32,1.85,1.85,0,0,0,.48,1.32,1.69,1.69,0,0,0,1.27.51h4.82Zm1.27,4.68h-2.62v-13.3h2.62Z"/>
      <path class="b" d="M1431,127.56a5.25,5.25,0,0,1-5.76-5.78v-2.19a5.7,5.7,0,0,1,1.51-4.22,5.79,5.79,0,0,1,4.25-1.49,6.84,6.84,0,0,1,2.81.55,4.71,4.71,0,0,1,2,1.58l-1.88,1.69a3.82,3.82,0,0,0-1.31-1,3.76,3.76,0,0,0-1.59-.35,3.15,3.15,0,0,0-2.34.85,3.22,3.22,0,0,0-.83,2.38v2.19a3.36,3.36,0,0,0,.83,2.44,3.11,3.11,0,0,0,2.34.85,3.5,3.5,0,0,0,1.59-.37,4,4,0,0,0,1.31-1l1.88,1.82a4.71,4.71,0,0,1-2,1.54A6.94,6.94,0,0,1,1431,127.56Z"/>
      <path class="b" d="M1449.63,127.35H1447v-9.44l.31.34-6.39,9.1h-2.27V114.07h2.59v9.66l-.31-.33,6.42-9.33h2.24Z"/>
      <path class="b" d="M1459.1,127.56a5.25,5.25,0,0,1-5.76-5.78v-2.19a5.7,5.7,0,0,1,1.51-4.22,5.79,5.79,0,0,1,4.25-1.49,6.84,6.84,0,0,1,2.81.55,4.71,4.71,0,0,1,2,1.58L1462,117.7a3.83,3.83,0,0,0-2.9-1.34,3.15,3.15,0,0,0-2.34.85,3.22,3.22,0,0,0-.83,2.38v2.19a3.36,3.36,0,0,0,.83,2.44,3.11,3.11,0,0,0,2.34.85,3.5,3.5,0,0,0,1.59-.37,3.9,3.9,0,0,0,1.31-1l1.88,1.82a4.71,4.71,0,0,1-2,1.54A6.91,6.91,0,0,1,1459.1,127.56Z"/>
      <path class="b" d="M1465.13,116.43v-2.36h10.32v2.36Zm3.85,10.94v-11.9h2.62v11.9Z"/>
      <path class="b" d="M1483.46,127.56a5.79,5.79,0,0,1-4.31-1.55,6,6,0,0,1-1.52-4.41v-1.5a6.64,6.64,0,0,1,1.46-4.59,5.28,5.28,0,0,1,4.14-1.63,4.54,4.54,0,0,1,3.88,1.84,8.51,8.51,0,0,1,1.38,5.18v.87h-9v-2.1H1486a4.41,4.41,0,0,0-.83-2.52,2.35,2.35,0,0,0-1.94-.91,2.84,2.84,0,0,0-2.3,1,4.2,4.2,0,0,0-.82,2.75v1.69a3.47,3.47,0,0,0,.88,2.54,3.33,3.33,0,0,0,2.47.88,4,4,0,0,0,1.57-.32,4.57,4.57,0,0,0,1.4-.89l1.71,1.71a7.06,7.06,0,0,1-2.21,1.47A6.26,6.26,0,0,1,1483.46,127.56Z"/>
      <path class="b" d="M1498.33,121.42l3.93-7.35h2.32v13.3h-2.36V118l.13.82-3.24,6h-1.57l-3.24-6,.13-.82v9.39h-2.35v-13.3h2.31Z"/>
      <path class="b" d="M1508.67,127.37v-13.3h2.62v13.3Zm1.27,0v-2.49h4a1.69,1.69,0,0,0,1.27-.5,1.82,1.82,0,0,0,.49-1.32,1.85,1.85,0,0,0-.49-1.33,1.69,1.69,0,0,0-1.27-.5h-4v-2.48h4a4.69,4.69,0,0,1,3.35,1.18,4.48,4.48,0,0,1,0,6.25,4.75,4.75,0,0,1-3.37,1.19Zm10.52,0v-13.3h2.61v13.3Z"/>
    </g>
    <ellipse class="b" cx="1324.23" cy="267.22" rx="100.82" ry="7.41"/>
  </g>
  <g>
    <g>
      <path class="b" d="M1588.36,456.32v2.33l-4.82,16.29h-2.77l4.81-16.14h-4.74v2.68h-2.61v-5.16Z"/>
      <path class="b" d="M1591.63,474.94V472.2h2.74v2.74Z"/>
      <path class="b" d="M1613.4,473a10.76,10.76,0,0,1-6.81-1.91,6.52,6.52,0,0,1-2.42-5.48v-.52a6.55,6.55,0,0,1,2.42-5.49,13.17,13.17,0,0,1,13.63,0,6.58,6.58,0,0,1,2.41,5.49v.52a6.54,6.54,0,0,1-2.41,5.48A10.77,10.77,0,0,1,1613.4,473Zm0-2.32a8.26,8.26,0,0,0,5-1.3,4.38,4.38,0,0,0,1.77-3.77v-.52a4.41,4.41,0,0,0-1.77-3.78,10.26,10.26,0,0,0-10,0,4.41,4.41,0,0,0-1.77,3.78v.52a4.38,4.38,0,0,0,1.77,3.77A8.31,8.31,0,0,0,1613.4,470.64Zm-1.31,4.3V455.68h2.62v19.26Z"/>
      <path class="b" d="M1636.77,474.93h-2.58v-9.44l.31.33-6.4,9.11h-2.26V461.65h2.58v9.65l-.3-.33,6.41-9.32h2.24Z"/>
      <path class="b" d="M1640.87,474.94V461.65h2.62v13.29Zm1.63-5.35v-2.36h8.16v2.36Zm6.78,5.35V461.65h2.61v13.29Z"/>
      <path class="b" d="M1660.24,475.13a5.62,5.62,0,0,1-3.67-1,3.77,3.77,0,0,1-1.22-3.1,3.71,3.71,0,0,1,1.12-3,4.92,4.92,0,0,1,3.36-1h3.78l.18,2.1h-4a2.24,2.24,0,0,0-1.52.45,1.78,1.78,0,0,0-.51,1.39,1.71,1.71,0,0,0,.67,1.5,3.57,3.57,0,0,0,2,.49,6,6,0,0,0,2.23-.32,1.07,1.07,0,0,0,.74-1l.27,1.87a3,3,0,0,1-.86.88,3.9,3.9,0,0,1-1.17.52A5.7,5.7,0,0,1,1660.24,475.13Zm3.25-.19v-8.43a2.8,2.8,0,0,0-.7-2,2.61,2.61,0,0,0-2-.72,5.12,5.12,0,0,0-1.55.24,4.24,4.24,0,0,0-1.36.68l-1.91-1.3a5,5,0,0,1,2-1.42,7.13,7.13,0,0,1,2.75-.51,5.45,5.45,0,0,1,3.87,1.3,4.79,4.79,0,0,1,1.37,3.65v8.54Z"/>
      <path class="b" d="M1669.05,475.06v-2.49a1.78,1.78,0,0,0,1.59-.93,5.12,5.12,0,0,0,.57-2.64v-7.35h2.62v7.71a6.59,6.59,0,0,1-1.19,4.21,4,4,0,0,1-3.33,1.49Zm3.79-10.93v-2.48h6.52v2.48Zm5.14,10.81V461.65h2.61v13.29Z"/>
      <path class="b" d="M1684.69,474.94V461.65h2.61v13.29Zm1.27,0v-2.48h4.68a1.71,1.71,0,0,0,1.28-.5,1.85,1.85,0,0,0,.48-1.32,1.82,1.82,0,0,0-.48-1.33,1.67,1.67,0,0,0-1.28-.5H1686v-2.49h4.58a4.74,4.74,0,0,1,3.36,1.19,4.14,4.14,0,0,1,1.28,3.13,4.06,4.06,0,0,1-1.27,3.12,4.73,4.73,0,0,1-3.37,1.18Z"/>
      <path class="b" d="M1698.57,474.94V461.65h2.62v13.29Zm1.63-5.35v-2.36h8.16v2.36Zm6.77,5.35V461.65h2.62v13.29Z"/>
      <path class="b" d="M1718.78,475.13a5.28,5.28,0,0,1-4-1.51,6,6,0,0,1-1.44-4.28v-2.16a5.86,5.86,0,0,1,1.44-4.23,6.2,6.2,0,0,1,8.09,0,5.86,5.86,0,0,1,1.44,4.23v2.2a5.91,5.91,0,0,1-1.44,4.25A5.32,5.32,0,0,1,1718.78,475.13Zm0-2.48a2.66,2.66,0,0,0,2.12-.86,3.53,3.53,0,0,0,.75-2.41v-2.2a3.52,3.52,0,0,0-.75-2.4,3.08,3.08,0,0,0-4.23,0,3.52,3.52,0,0,0-.75,2.4v2.2a3.53,3.53,0,0,0,.75,2.41A2.67,2.67,0,0,0,1718.78,472.65Z"/>
      <path class="b" d="M1733.42,475.13a5.74,5.74,0,0,1-4.3-1.55,6,6,0,0,1-1.52-4.4v-1.5a6.63,6.63,0,0,1,1.46-4.6,5.3,5.3,0,0,1,4.13-1.63,4.57,4.57,0,0,1,3.89,1.85,8.48,8.48,0,0,1,1.38,5.17v.87h-9v-2.1H1736a4.47,4.47,0,0,0-.84-2.52,2.34,2.34,0,0,0-1.94-.91,2.86,2.86,0,0,0-2.29,1,4.15,4.15,0,0,0-.82,2.76v1.69a3.4,3.4,0,0,0,.88,2.53,3.3,3.3,0,0,0,2.46.89,4.21,4.21,0,0,0,1.58-.32,4.55,4.55,0,0,0,1.39-.9l1.72,1.72a7.19,7.19,0,0,1-2.22,1.46A6.19,6.19,0,0,1,1733.42,475.13Z"/>
      <path class="b" d="M1753.25,475.13a5.33,5.33,0,0,1-3.41-1,4.33,4.33,0,0,1-1.57-2.91h2.53a1.73,1.73,0,0,0,.78,1.15,3,3,0,0,0,1.63.41,2.7,2.7,0,0,0,1.73-.49,1.64,1.64,0,0,0,.61-1.38h0a1.35,1.35,0,0,0-.44-1.08,1.88,1.88,0,0,0-1.26-.38h-2.09v-2.23h2.09a1.16,1.16,0,0,0,.94-.4,1.67,1.67,0,0,0,.33-1.11h0a1.73,1.73,0,0,0-.53-1.35,2.2,2.2,0,0,0-1.52-.47,2.61,2.61,0,0,0-1.52.41,2,2,0,0,0-.84,1.15h-2.52a4.7,4.7,0,0,1,1.68-2.91,5.17,5.17,0,0,1,3.32-1,5.33,5.33,0,0,1,3.36.94,3.16,3.16,0,0,1,1.18,2.64h0a3.32,3.32,0,0,1-.52,1.88,3,3,0,0,1-1.48,1.17,2.72,2.72,0,0,1,1.8.93,3,3,0,0,1,.64,2h0a3.74,3.74,0,0,1-1.29,3A5.55,5.55,0,0,1,1753.25,475.13Z"/>
      <path class="b" d="M1765.81,475.13a5.64,5.64,0,0,1-3.67-1,3.8,3.8,0,0,1-1.22-3.1,3.71,3.71,0,0,1,1.12-3,5,5,0,0,1,3.36-1h3.78l.18,2.1h-3.94a2.25,2.25,0,0,0-1.53.45,1.78,1.78,0,0,0-.51,1.39,1.72,1.72,0,0,0,.68,1.5,3.52,3.52,0,0,0,2,.49,6,6,0,0,0,2.23-.32,1.07,1.07,0,0,0,.74-1l.27,1.87a3,3,0,0,1-.86.88,3.9,3.9,0,0,1-1.17.52A5.73,5.73,0,0,1,1765.81,475.13Zm3.26-.19v-8.43a2.84,2.84,0,0,0-.7-2,2.64,2.64,0,0,0-2-.72,5.1,5.1,0,0,0-1.54.24,4.29,4.29,0,0,0-1.37.68l-1.9-1.3a4.91,4.91,0,0,1,2-1.42,7.11,7.11,0,0,1,2.74-.51,5.42,5.42,0,0,1,3.87,1.3,4.75,4.75,0,0,1,1.37,3.65v8.54Z"/>
      <path class="b" d="M1774.63,474.94v-2.36h12.79v2.36Zm0,3.34v-5.7h2.61v5.7Zm1.37-4.36-.9-1.34h.31a1.54,1.54,0,0,0,1.21-.44,2.45,2.45,0,0,0,.55-1.37,15.78,15.78,0,0,0,.15-2.4v-6.72h2.61v7.59a5.51,5.51,0,0,1-1,3.5,3.25,3.25,0,0,1-2.68,1.18Zm2.94-9.92v-2.35h5.92V464Zm5,10.94V461.65h2.61v13.29Zm2.37,3.34v-5.7H1789v5.7Z"/>
      <path class="b" d="M1796.3,475.13a5.62,5.62,0,0,1-3.67-1,3.78,3.78,0,0,1-1.23-3.1,3.71,3.71,0,0,1,1.13-3,4.92,4.92,0,0,1,3.36-1h3.78l.17,2.1h-3.94a2.24,2.24,0,0,0-1.52.45,1.75,1.75,0,0,0-.52,1.39,1.72,1.72,0,0,0,.68,1.5,3.55,3.55,0,0,0,2,.49,6,6,0,0,0,2.23-.32,1.07,1.07,0,0,0,.74-1l.27,1.87a3,3,0,0,1-.86.88,3.9,3.9,0,0,1-1.17.52A5.7,5.7,0,0,1,1796.3,475.13Zm3.25-.19v-8.43a2.8,2.8,0,0,0-.7-2,2.61,2.61,0,0,0-2-.72,5.1,5.1,0,0,0-1.54.24,4.24,4.24,0,0,0-1.36.68l-1.91-1.3a5,5,0,0,1,2-1.42,7.13,7.13,0,0,1,2.75-.51,5.45,5.45,0,0,1,3.87,1.3,4.79,4.79,0,0,1,1.37,3.65v8.54Z"/>
      <path class="b" d="M1806,474.94V461.65h2.61v13.29Zm1.62-5.35v-2.36h8.16v2.36Zm6.78,5.35V461.65H1817v13.29Z"/>
      <path class="b" d="M1832.06,474.93h-2.59v-9.44l.31.33-6.39,9.11h-2.27V461.65h2.59v9.65l-.31-.33,6.42-9.32h2.24Z"/>
      <path class="b" d="M1841.6,475.13a5.76,5.76,0,0,1-4.31-1.55,6,6,0,0,1-1.52-4.4v-1.5a6.64,6.64,0,0,1,1.47-4.6,5.29,5.29,0,0,1,4.13-1.63,4.58,4.58,0,0,1,3.89,1.85,8.54,8.54,0,0,1,1.37,5.17v.87h-9v-2.1h6.48a4.55,4.55,0,0,0-.84-2.52,2.34,2.34,0,0,0-1.94-.91,2.85,2.85,0,0,0-2.29,1,4.15,4.15,0,0,0-.82,2.76v1.69a3.44,3.44,0,0,0,.87,2.53,3.34,3.34,0,0,0,2.47.89,4.16,4.16,0,0,0,1.57-.32,4.48,4.48,0,0,0,1.4-.9l1.72,1.72a7.19,7.19,0,0,1-2.22,1.46A6.23,6.23,0,0,1,1841.6,475.13Z"/>
      <path class="b" d="M1857.26,467h8.61v2.48h-8.61Z"/>
      <path class="b" d="M1651.24,500.09l5.46-12.29h2.45v18.62h-2.55V492.47l.13.82-4.59,10.54h-1.81l-4.59-10.28.13-1.08v13.95h-2.55V487.8h2.45Z"/>
      <path class="b" d="M1674.44,506.41h-2.58V497l.3.33-6.39,9.11h-2.27V493.12h2.59v9.66l-.3-.33,6.41-9.33h2.24Z"/>
      <path class="b" d="M1678.54,506.42v-13.3h2.61v13.3Zm1.63-5.36v-2.35h8.16v2.35Zm6.77,5.36v-13.3h2.62v13.3Z"/>
      <path class="b" d="M1704.59,506.41H1702V497l.3.33-6.39,9.11h-2.26V493.12h2.58v9.66l-.31-.33,6.42-9.33h2.24Z"/>
      <path class="b" d="M1708.69,498.5h8.61V501h-8.61Z"/>
      <path class="b" d="M1721.27,506.42v-13.3h2.61v13.3Zm1.63-10.81v-2.49h8.15v2.49Zm6.77,10.81v-13.3h2.61v13.3Z"/>
      <path class="b" d="M1736.38,511.82v-18.7H1739v18.7Zm6-5.21a3.91,3.91,0,0,1-2.17-.6,3.43,3.43,0,0,1-1.35-1.68l.18-2.78a3.25,3.25,0,0,0,.3,1.46,2.14,2.14,0,0,0,.89.92,2.84,2.84,0,0,0,1.42.32,2.56,2.56,0,0,0,2-.78,3.2,3.2,0,0,0,.71-2.23v-2.88a3.3,3.3,0,0,0-.71-2.27,2.54,2.54,0,0,0-2-.8,3,3,0,0,0-1.42.31,2.07,2.07,0,0,0-.89.89,3.13,3.13,0,0,0-.3,1.44l-.27-2.57a4.69,4.69,0,0,1,1.57-1.8,3.91,3.91,0,0,1,2.17-.63,4,4,0,0,1,3.3,1.42,6.1,6.1,0,0,1,1.17,4v2.89a5.88,5.88,0,0,1-1.21,4A4.21,4.21,0,0,1,1742.34,506.61Z"/>
      <path class="b" d="M1755.75,506.61a5.32,5.32,0,0,1-4-1.52,5.94,5.94,0,0,1-1.43-4.27v-2.16a5.86,5.86,0,0,1,1.43-4.23,6.22,6.22,0,0,1,8.1,0,5.9,5.9,0,0,1,1.43,4.23v2.2a5.91,5.91,0,0,1-1.43,4.24A5.32,5.32,0,0,1,1755.75,506.61Zm0-2.48a2.68,2.68,0,0,0,2.12-.86,3.55,3.55,0,0,0,.75-2.41v-2.2a3.49,3.49,0,0,0-.75-2.4,3.1,3.1,0,0,0-4.24,0,3.49,3.49,0,0,0-.75,2.4v2.2a3.55,3.55,0,0,0,.75,2.41A2.69,2.69,0,0,0,1755.75,504.13Z"/>
      <path class="b" d="M1770.39,506.61a5.79,5.79,0,0,1-4.31-1.55,6,6,0,0,1-1.52-4.41v-1.49a6.6,6.6,0,0,1,1.47-4.6,5.24,5.24,0,0,1,4.13-1.63,4.55,4.55,0,0,1,3.88,1.85,8.46,8.46,0,0,1,1.38,5.17v.87h-9v-2.1h6.48a4.49,4.49,0,0,0-.84-2.52,2.34,2.34,0,0,0-1.94-.91,2.84,2.84,0,0,0-2.3,1A4.21,4.21,0,0,0,1767,499v1.69a3.46,3.46,0,0,0,.88,2.53,3.34,3.34,0,0,0,2.47.89,4.16,4.16,0,0,0,1.57-.32,4.79,4.79,0,0,0,1.4-.9l1.72,1.71a7,7,0,0,1-2.22,1.47A6.23,6.23,0,0,1,1770.39,506.61Z"/>
      <path class="b" d="M1779,506.42v-13.3h2.61v13.3Zm1.27-5.42v-2.48h4.8V501Zm3.82.08-1.19-2.3,3.62-5.66h3.15Zm2.86,5.34-3.93-5.61,2-1.35,5.39,7Z"/>
      <path class="b" d="M1791.87,495.48v-2.36h10.32v2.36Zm3.85,10.94v-11.9h2.61v11.9Z"/>
    </g>
    <ellipse class="b" cx="1722.31" cy="614.8" rx="100.82" ry="7.41"/>
  </g>
  <g>
    <g>
      <path class="b" d="M550.65,541.83c.25,0,.14-.23-.54-.3l-.52.22Z"/>
      <path class="b" d="M546.2,540.6c-.81,0-1.77.11-1.3.46.83-.15,1,0,1.9-.21.68.08,1.16.28,1,.37.25,0,1,.22,1.43.1a8.21,8.21,0,0,0-3.14-.54C545.88,540.68,546.13,540.64,546.2,540.6Z"/>
      <path class="b" d="M481,527.19l.41.13A4.06,4.06,0,0,0,481,527.19Z"/>
      <path class="b" d="M441.16,516.63c.3.08.44.08.46.06C441.34,516.63,441.1,516.58,441.16,516.63Z"/>
      <path class="b" d="M434.49,514.35l.4.14A1.48,1.48,0,0,0,434.49,514.35Z"/>
      <path class="b" d="M481,527.19l-1.05-.34C479.86,526.92,480.49,527.05,481,527.19Z"/>
      <path class="b" d="M537,539.81a4.23,4.23,0,0,0,.6,0l-.56-.06Z"/>
      <path class="b" d="M498.79,531l.33.07a1.36,1.36,0,0,0,.29-.06Z"/>
      <path class="b" d="M512.45,533.77c-.31-.07-.46.15-.6.24a1.58,1.58,0,0,1,.7,0S512.54,533.87,512.45,533.77Z"/>
      <path class="b" d="M534.11,538.28l.39,0Z"/>
      <path class="b" d="M489.06,528.76a.4.4,0,0,0-.11-.12S489,528.72,489.06,528.76Z"/>
      <path class="b" d="M196.85,311.16h0C196.86,311.08,196.85,311.05,196.85,311.16Z"/>
      <path class="b" d="M198.83,295v.22a.25.25,0,0,0,.13.06Z"/>
      <path class="b" d="M422.27,510.31l.05,0C422.65,510.41,422.47,510.35,422.27,510.31Z"/>
      <path class="b" d="M313.34,465.19c1.06.85-2-.81-.4.39C312.82,465.4,314.72,466.13,313.34,465.19Z"/>
      <path class="b" d="M536.67,539.71l-.57-.09A5.2,5.2,0,0,0,536.67,539.71Z"/>
      <path class="b" d="M312.94,465.58h0l.17.12Z"/>
      <path class="b" d="M394.1,501.05a.94.94,0,0,0,.25.2S394.29,501.17,394.1,501.05Z"/>
      <path class="b" d="M414.91,508.5l-.51-.21Z"/>
      <path class="b" d="M383.21,497.42a3.83,3.83,0,0,0-.74-.31l.1.08A1.84,1.84,0,0,1,383.21,497.42Z"/>
      <path class="b" d="M372.07,493.12l.19.12.35.13Z"/>
      <path class="b" d="M202,347.31a2.1,2.1,0,0,1,.07-.59C202,346.94,201.47,345.25,202,347.31Z"/>
      <path class="b" d="M537,539.67a.57.57,0,0,1-.37,0l.39.06S537.12,539.7,537,539.67Z"/>
      <path class="b" d="M382.07,499.07l-1.77-.7C380.79,498.58,381.43,498.83,382.07,499.07Z"/>
      <path class="b" d="M247.1,419.75l-.34-.28A1.91,1.91,0,0,0,247.1,419.75Z"/>
      <path class="b" d="M375,496.37a5.79,5.79,0,0,0-.94-.55,1,1,0,0,0-.23,0Z"/>
      <path class="b" d="M202.09,346.71h0Z"/>
      <path class="b" d="M198.73,334.54c.31,1.81.46.79.71,1.14.51,2.12,0,1-.06,1.79.34,1.32.87,2.28,1.07,3.27,0,.08,0,.28-.12.07.58,1.34,1.06,4.13,1.79,5.67a.5.5,0,0,1,0,.23c.09-.3.24-.39.37-.36.22.78.56,1.41.46,1.75a1.75,1.75,0,0,0-.35-.7c.1.26.2.53.32.79,0,.41-.14.14-.28-.22s-.24-.84-.35-.81c.52,1.59,1.4,3.35,1.68,4.6-.21.34-1-2.82-.74-1.12l-.48-1.92c0,1.58-.32-1.16-.4.31.7,2.52,1,2.74,1.72,5.25.33.51.17-.26.5.25,1.55,3.36.3,3,1.61,5.39a5.43,5.43,0,0,1,1.42,2.56L207,362c1,2.33,1,1.13,1.84,3.65-.3-.38-.88-1.78-.77-1.41.43,1.68.65,1,1.17,2.24l-.17.37c.52,1.24,1.26,2.46,1.93,3.74s1.4,2.57,2.1,3.88c-.16-.1-.48-.51-.23.15,1,1.61,1.91,3.37,2.81,5.13l2.77,5.07.93,1c.17.28.21.57,0,.3.69,1.24.18,0,.64.49s.46,1,.11.58c.78,1,1.86,2.38,2.9,3.84s2.12,2.88,2.77,4l-.37-.37c1.13,1.71,1.77,1.56,2.71,3.21l-.26-.26c1.33,1.77,2.79,3.58,4.15,5.3s2.73,3.27,3.67,4.68c.67.27,2.8,3.37,3.38,3.23a39.12,39.12,0,0,0,3.27,4.27c.65.7,1.23.79,2.09,1.58l-.18.21,1.32.94.37.83.82.74c-.3-.32-.57-.75-.47-.76a15.27,15.27,0,0,1,2.83,3.17l3.11,2.63c-.15,0-.67-.42-1.1-.74,1.76,1.29.08.49,1.73,1.64-.16-.22.22,0,.29,0a31.71,31.71,0,0,0,3.6,3.35l-.36-.07c1.1,1,2.35,2,3.62,3.06s2.56,2.11,3.89,3.16c-.9-.82-.47-.9.32-.31l.13.47c.61.26-.74-.73.42-.08,1,.81.46.78-.16.4l1.26.88c0,.13-.29-.06-.43,0,.6.26,1.9,1.88,2.8,2.2l0,.13c2.68,2.07,4,2.89,6.19,4.54.18-.16,1,.52,1.81.83,1.6,1.23,3.31,2.71,5.32,4.09,1.49.86.53.11,1.25.42,0,.26,2,1.61.87,1,2.45,1.6,3.1,2.1,6.32,3.93-.29-.29-.65-.57-.41-.51.58.33,1.23.91,1.09.95l-.16-.08c3.64,2,7.76,5.66,10.84,7l-.17-.07,3.08,1.52c1.34.83-.9-.33,0,.38,3.37,1.56,5,3,7.82,4.24,1.72,1.76,7.37,4,10,5.82l-.09-.23c.8.24.84.54,1.37.85,0-.15-.73-.54-.24-.38,6.26,3.07,12.75,6.65,19.15,9.82,2.37,1.12,1.69-.12,4.53,1.58l-1-.12c2.47.95,4.93,2.05,7.38,3.12s4.89,2.16,7.33,3a2.17,2.17,0,0,1-.81-.18,12.49,12.49,0,0,0,3.79,1.43c.73.33.11.21.53.48,1,.53,2.65.79,3.11,1.2.08.07-.31-.05-.51-.11.7.17,3.07,1.27,2.53.79,1.75.84,3.48,1.27,4.86,2,1,.11,3,1.33,3.48,1.08-.28.34,3.05,1.52,4.26,1.77-.42,0,.95.49.44.48,1.31.49,2.54.87,2.38.59,2.24,1.36,5,1.42,6.14,2.49,4,1.22,7.64,2.35,11.2,3.47-.26.35-3.91-1.31-3.9-.86,3.39,1,5.45,1.33,8.73,2.56.85.34-.54,0-.85,0,3.4,1,6.48,2.18,9.53,2.95a2.1,2.1,0,0,1-.67-.1c.6.18,1.36.49,1.35.3l-.59-.13c-.87-.55,2.51.22,2.66.12-1.16.17,2.92,1.06,1.13,1.18.4.09.91.17.86,0,.56.22.73.35.1.29,2.14.58,1.45.16,3.37.75,0,.08-.43,0-.66,0a16.13,16.13,0,0,1,3.66.85c-.12,0,.05.14-.43,0,2.79.84,4.89,1,7.91,2.08-1,.1,1,.43,1.08.8l1.68.38-.62-.34c1.45.42,2.8.56,4,1l-1.11-.18,2.73.72-1.5-.56c1.51.26-.05-.44,1.86.2-.4-.08,1.45.42,2.15.81h0a11.14,11.14,0,0,1,2.56.58c.25.18-.32.29-.16.41.79-.07,3.43.87,4.4.83-.31,0-.38.14-.29.2l.66,0c.65.25.74.31.6.41,2,.59-.54-.57,1.82.25a2.7,2.7,0,0,1-.51,0c2.39.75,4.71,1.11,6.91,1.8.57.5-2-.43-1.29,0,3.23.79,6.76,1.33,9.85,2.2l-.57-.18c.54-.34,2.26.8,3.89,1-.39-.07-.57.12-.45.1,2.12.6,4.39,1,7.67,1.59l-.43,0c1.23.41,3.3.85,4.66,1.22.43,0,1.2.18.77-.1,4.05,1.65,8.1,1.48,11.72,2.85-.45-.1-1.09-.13-.73,0l3.21.59c-.21-.26-.4-.21-1-.52a9.72,9.72,0,0,1,2.14.25c-1.47-.18-.06.32.54.56-.09-.08.13-.1.09-.18,1.59.71.37-.34,2.59.39l-.14.07c.86.13,1.67.16,2.59.38.33.31-.93-.08-1,.1,1.29.25,2.64.09,3.76.56-.56,0-1.35-.21-1.91-.26a10.1,10.1,0,0,0,2.31.73l-.09,0,2.16.56-.54-.18c1.74-.28,3.32.56,5.58.59-2.2,0-.4.14-.61.38.54.18,1.37.42,1.12.45,1.07,0,1.69.5,3.2.48,0,.09,1.11.21.83.38,1.36.19-.29-.21-.15-.29,2.12.11,4.8,1.27,7.85,1.42,2.6.3,3.13.1,5.54.38.78.27-.72.19-.72.19a18.33,18.33,0,0,0,3.51.61c-.27,0,0,.14.34.3,1,.14.71-.2,2,.15a4.42,4.42,0,0,1-1,.17c1.18.12,2.35.16,3.56.27.3.2-.76.11-1.2.14a20,20,0,0,0,4,.27l-.86-.22c.5.06.23.24-.14.22-1.19,0-1.66-.35-1.71-.45l.86.09c-.79-.64-3.45-.49-5.16-.81l.78-.24h-1.82c-.36-.16-.58-.41.28-.32-1.2-.39-1.11-.06-2.14-.44-.11-.05,0-.06.06-.06l-1.23-.1c.25,0-.15-.29.58-.11-2.12-.58-3.53-.35-4.29-.76h.18c-3-.42-.34.21-2.64.11l-1.39-.93-.34.21c-.31-.07-.92-.2-.78-.28-1.18,0,.17.15-.53.19-1.44-.52-4.11-.66-4.37-1.15-.57.1,1.39.43-.22.27-.36-.54-1.84-.28-3.16-.75.47-.16,1.72.22.41-.26-.9.24-2.62-.6-3.78-.76-.11.31-2.5-.36-4.44-.65.15-.08-3.56-.91-5.31-1.41l.06,0c-.41.24-2.23-.21-3.58-.42.09-.18.35-.21,1.09-.14l-1.25-.26a6.15,6.15,0,0,1-1.55-.14l.37-.17a52.91,52.91,0,0,1-5.53-1.09c-.17.19,1.57,1-.73.63-.06-.13-.09-.36.51-.27a5.4,5.4,0,0,1-1.1-.2h1c-1-.31-.54,0-1.32-.15,0-.16-.55-.25-.41-.36a6.47,6.47,0,0,0,1,.23,11.15,11.15,0,0,1-2.23-.78c.05.11-.06.23-.71.1-1.66-.36-.52-.33-1.47-.64-.43,0-1.46-.34-1.55-.1a1.48,1.48,0,0,1-.72-.36c-.89-.09-4-.91-3.12-.41l.22.07-.15,0h0c-2.87-.43-5.82-1.54-8.63-2.13l0-.08c-1.69-.32-3.73-.85-5-1-.49-.13-1.12-.45-.88-.5a17.74,17.74,0,0,1-3.26-.8c1.32.17-.4-.25,1.34.22a17.05,17.05,0,0,0-3.8-1c.66-.06-1.17-.6-2-.74l1.11.45c-.89-.19-1.65-.42-2.43-.64l.5-.17c-3.28-1.23-6.23-1.05-8.63-2.31-1,0,1.79.63.93.65-1.54-.45-3-1.32-3.52-1.45-2.07-.75-2.09-.14-4.27-.87.25.18.44.53-1.24.15-1.53-.48-1.77-1-.77-.77.37.1.54.18.51.21.51.11,1.18.26.6,0l-.23,0c-.74-.32-2.86-.92-2.32-.94-1.19-.24-.54,0,.31.32-1.94-.72-3.09-.88-5.09-1.59.3.15.56.36.24.26-2.94-1-1.36-.2-3.39-.76-1.11-.49.52-.24-1.55-.71-1.21-.48-.19-.35.33-.28a25.59,25.59,0,0,1-4.45-1.54l1,.22c-.59-.13-1.07-.28-1.55-.43l.49.37c-.56-.21-1-.36-1-.44-.63-.05.34.47-.88.29-.73-.33-2.35-.6-2.53-1,2.36.84-.18-.35,1.86.24a11.27,11.27,0,0,1-1.44-.45c-.08-.06.1,0,.26,0-2.21-1-1.14,0-3.51-.79.35,0-.46-.46-.85-.55.95.31.37.4-.54.23a16.16,16.16,0,0,0-2.46-.7l.89.34a8.75,8.75,0,0,1-2.18-.51c-.05-.15,1,.23.62.06-1.25-.13-2.55-1.14-4.24-1.5-.73-.35,0-.3-.62-.59-1.9-.41-1.91-.87-3.88-1.35.48.38.6.37-.82.1l3.2.93-2.12-.39c.95.32,2.05.55,2.61.78-1-.16-.91-.18-.51.14-1.2-.74-2.64-.7-4.07-1.42l.21-.47c-2.19-1-4.1-1.12-7-2.28l.91.42a20.83,20.83,0,0,1-2.79-.86c.15-.14-.42-.41-.79-.65,0,.15-2.13-.78-2.51-.55l-1.23-.69c-2.31-.95-2.85-.5-5.09-1.4.75.08-.24-.42,1.32,0-.75-.28-1.42-.57-1.47-.46-.4-.27-2.17-.57-2.8-1a3.15,3.15,0,0,1-1.35-.25c-.08-.07,0-.08,0-.08s-1.36-.39-.69.07c-2.13-1.37-6.46-2.48-8.3-3.69-1.65-.59-3.63-1.34-5.11-1.93.11,0,0-.08.31.05-2-1-1.45,0-3.69-1.16-1.06-.76,1.29.38.59,0-.1-.67-2.81-1.1-4.23-2.06l.39.12c-1.1-.68-3-1-4.88-1.89,0,0,.11,0,.05-.08a47.69,47.69,0,0,1-5.85-2c.67,0,.89.26.63-.1-.84-.34.09.44-1.58-.25-.49-.35-1.63-1-1.69-1.28l1.56.69c-.66-.65-2-.9-2.81-1.33l.17-.07c-2.4-1.05-2.58-.73-5.11-2l.22.22c-1.54-.35-1.08-.73-2.58-1.15l-.26-.52c-1-.35-3.36-1.21-5-2,1,.23,3,1.05,4.26,1.46a29.62,29.62,0,0,0-3.63-1.53,6.22,6.22,0,0,1,1.21.52,23.07,23.07,0,0,1-4.53-1.79c.61-.42-4.58-2.49-5.63-3.63-3.27-1.37-6.15-3.37-9.8-5.27,1,1.16-1.06-.57-1.09,0a7.62,7.62,0,0,1-1.23-.7l-2.38-1.7c-.52-.48.86.34.84.19-1.81-1.06-.66-.63-1.8-1.43.16.3-.78-.11-1.77-.78.44.35.89.71,1.34,1.05-2.69-1.21-2-1.67-4.66-2.91l.89.33c-.68-.34-1.88-1.05-3.11-1.72a18.21,18.21,0,0,0-3.18-1.55c-.2-.2-.42-.51.16-.19-3.07-1.92-7.08-3.89-9.3-5.65l.3,0a7.3,7.3,0,0,1-1.76-1c.07,0,.3,0,0-.14a15.05,15.05,0,0,1-2.31-1.38l.72.31c-2.83-2.13-4.71-2.73-7.17-4.4.23-.31-2-2-3.05-2.89h.07c-1.64-1.24-3.07-2.24-4.5-3.18s-2.84-1.85-4.37-3a45,45,0,0,0-4-3.57c-1.65-1.42-3.46-2.94-4.84-4.25.4.43-.27.18-.8-.25-.61-.65-2-1.44-1.68-1.61l.24.21c-.27-.71-1.7-1.86-2.76-2.82l-.49.19a36.24,36.24,0,0,0-4.63-4.66,20,20,0,0,1-3.62-3.84c-.72-.56-1.5-1.36-2.22-1.92l.22-.14c-1.66-1.87-2.47-2.82-4.61-5.05l.56.35c-1.17-1.28-2-1.17-3.06-2.38l0-.61c-1-1.16-1.94-2.36-2.86-3.57a32.68,32.68,0,0,0-2.93-3.48c.08,0,.22,0,.53.39-.43-.57-1.26-1.68-1.93-2.6s-1.25-1.6-1.3-1.24c.25-.23-1.83-2.55-2.9-3.8l.34.07a12.26,12.26,0,0,1-2.27-2.53c-.23-.4-.06-.44.23.1-.74-1.34-.86-.86-1.78-2.48l.52.49a7.67,7.67,0,0,0-1.46-1.81,8.91,8.91,0,0,1-1.43-2.91,4.42,4.42,0,0,1-1.25-1.58c0-.15.23.11.34.24-1.22-2.33-2.15-3.28-2.83-5a.41.41,0,0,0,0-.34c1,1.84,1.79,3.32,1.7,3.19.19-.11-.58-1.61.34-.58a30.88,30.88,0,0,1-2.92-4.45.66.66,0,0,1,0-.23l.1.14a7.79,7.79,0,0,0-.49-.92c-.2-.49-.32-.8-.54-1.25a11.76,11.76,0,0,0-1.11-2.54c-.19.17-.64-.84-.37.17,0-.12.1.13.35.63a2.58,2.58,0,0,0,.18.31l0,0,.92,1.88a6.58,6.58,0,0,1-1.08-2c-.33-.32-.69-.68-.88-.89-.22-1.17-.9-3.3-.83-3.66-.55-1.17-1.19-2.53-1.79-3.79a20.25,20.25,0,0,0-1.6-3.11,1.83,1.83,0,0,1-.19-1.12,9.75,9.75,0,0,0,.5,1.05c-.61-1.34-1.58-4-1.95-4.28-.41-1.8.6.89-.21-1.5l.2.29c-1-4.86-3.12-7.53-3.75-13.08a2.36,2.36,0,0,1,0,.67c-1.1-6.19-2.64-12.74-2.65-19a10.89,10.89,0,0,0-.48-3l.25-.4c-.13-.6-.28-1.21-.4-1.82-.32-2.62.51-4.54.13-7.84l-.19.42c0-1.19,0-3.77.18-3.56a1.44,1.44,0,0,1-.06-.86l.14,0-.09-2.93c.26-2.26.53.38.79-2.9,0-1.23-.09-3.52-.23-3.07s-.2,1.25-.34,1.28l0-1.13c-.39-.24-.73-1.16-1.27,1.59,0,.65,0,1.3.09,1.95l-.24.61.11-1.63a4.9,4.9,0,0,0-.07,2.17,1.93,1.93,0,0,0-.27.8c.08.64.19,1.29.29,1.92-.17.23-.28-.87-.43.41.14.9.4-.84.45.64-.23.92-.37.64-.24,1.74-.11.15-.17-.09-.21-.52a20.75,20.75,0,0,0,.2,3.07c-.24,1,0,3.27-.34,3.18a15.79,15.79,0,0,1,.36,2.59c-.51-1.61.08,3.34-.42,2.93.47,1.18.42,4.34.87,6.44a1.29,1.29,0,0,1-.13-.53,21.46,21.46,0,0,1,0,2.34c.36.12.65,2,1,2.94-.14,1.5-.53-.84-.78-.34.26-.11.62,2.5.78,2,0,1.15,0,1-.16,1.59.46.13.24,1,.64,1.91.07,1.64-.32.48.12,2.22C199.16,336.09,198.73,334.54,198.73,334.54Zm14.45,39.91h0c-.18-.32-.33-.59-.42-.77C212.83,373.84,213,374.06,213.18,374.45Zm1.71,3.13-.74-1.37c0-.15.16-.07.33.25C214.34,376.31,214.7,377.08,214.89,377.58ZM213,370.13c.28.48.31.67.3.76l-.45-.86-.06,0A.46.46,0,0,1,213,370.13Z"/>
      <path class="b" d="M212.23,369.36c0-.07-.07-.1-.12-.2l.1.33.16.14Z"/>
      <path class="b" d="M481.49,527.35l-.07,0a.58.58,0,0,1,.14.08S481.52,527.36,481.49,527.35Z"/>
      <polygon class="b" points="244.21 417.01 244.25 416.96 244 416.78 244.21 417.01"/>
      <path class="b" d="M500.4,532.47a.73.73,0,0,0,.23.12S500.52,532.53,500.4,532.47Z"/>
      <path class="b" d="M508.66,534.26l1.16.33Z"/>
      <path class="b" d="M515,535.67a.47.47,0,0,0,.15-.08h0Z"/>
      <path class="b" d="M414.82,510.21l-.24-.06C414,510,414.39,510.12,414.82,510.21Z"/>
      <path class="b" d="M444.46,518.54l-1-.15C444,518.55,444.4,518.67,444.46,518.54Z"/>
      <path class="b" d="M382.26,499.15h0l-.19-.08Z"/>
      <path class="b" d="M442.1,518a7.53,7.53,0,0,0,1.37.4A13.38,13.38,0,0,0,442.1,518Z"/>
      <path class="b" d="M542.74,540.78l.31.06s0,0,0,0Z"/>
      <path class="b" d="M543.09,540.81l.35,0A1,1,0,0,0,543.09,540.81Z"/>
      <path class="b" d="M544.17,540.89l-.73,0A2.4,2.4,0,0,0,544.17,540.89Z"/>
      <path class="b" d="M534.27,539.24l-.12.07A.15.15,0,0,0,534.27,539.24Z"/>
      <path class="b" d="M531.68,538.81a20.14,20.14,0,0,0,2.38.56l.09-.06C533.73,539.37,532.29,538.77,531.68,538.81Z"/>
      <path class="b" d="M521.15,535.74l2.14.48c-.36-.16-.83-.38.15-.22C520.78,535.21,524,536.32,521.15,535.74Z"/>
      <path class="b" d="M514.51,534.32c1.16.18,0-.14.09-.18C513.85,534.07,513.67,534.06,514.51,534.32Z"/>
      <path class="b" d="M466.66,523.51l.17-.19C465.94,523.12,466.8,523.4,466.66,523.51Z"/>
      <polygon class="b" points="457.28 522.28 458.1 522.64 458.56 522.55 457.28 522.28"/>
      <polygon class="b" points="452.35 519.29 452.74 519.36 451.26 519.05 452.35 519.29"/>
      <path class="b" d="M374.13,493.69l.15.35C374.87,494.22,375.1,494,374.13,493.69Z"/>
      <path class="b" d="M341.36,479.91a4.68,4.68,0,0,0-1.77-.94C340.31,479.33,341,479.77,341.36,479.91Z"/>
      <polygon class="b" points="252.53 422 253.11 422.42 252.08 421.55 252.53 422"/>
    </g>
    <path class="b" d="M556,542a26.75,26.75,0,0,0-8.1,3l2.15-3.91-.85-4.38A26.43,26.43,0,0,0,556,542Z"/>
  </g>
  <g>
    <path class="c" d="M746.5,569.5c1.78,32,2.18,117.79-53,202-78,119.1-207.37,143.6-240.73,148.31"/>
    <path class="b" d="M447.5,920.5a26.62,26.62,0,0,0,6.85-5.24l-.89,4.37,2.11,3.93A26.87,26.87,0,0,0,447.5,920.5Z"/>
  </g>
  <image width="250" height="250" transform="translate(226 152) scale(0.63)" xlink:href="../PyCharmProjectsD/WebQuestAstraLinux/accounts/static/accounts/img/Звезда.png"/>
  <g>
    <path class="c" d="M351.5,948.5a566,566,0,0,0,141,69c101.52,33.12,190.93,30.2,245.72,23.65"/>
    <path class="b" d="M743.5,1040.5a26.68,26.68,0,0,0-7,5l1-4.33-2-4A26.66,26.66,0,0,0,743.5,1040.5Z"/>
  </g>
  <g>
    <path class="c" d="M1167.9,732.63c6.39,24.66,20,94.77-16.4,169.87-43.23,89.12-125,119.43-141,125"/>
    <path class="b" d="M1166.5,727.5a26.61,26.61,0,0,1-2.15,8.35l3.67-2.52,4.44.4A26.6,26.6,0,0,1,1166.5,727.5Z"/>
  </g>
  <g>
    <path class="c" d="M1254.5,676.5c17.87-9.49,96.8-53.91,130-152,35.44-104.71-7.14-194-20.4-218.36"/>
    <path class="b" d="M1361.5,301.5a27,27,0,0,0,7.29,4.61l-4.4.67-3,3.35A26.55,26.55,0,0,0,1361.5,301.5Z"/>
  </g>
  <g>
    <path class="d" d="M1437,276a533.55,533.55,0,0,0,156.68,327.79"/>
    <path class="b" d="M1598,608a30.36,30.36,0,0,0-9.42-2.65l4.58-2.16,2.12-4.59A30.39,30.39,0,0,0,1598,608Z"/>
  </g>
</svg>
